<svg xmlns="http://www.w3.org/2000/svg" width="105.081" height="145.599" viewBox="0 0 105.081 145.599"><defs><style>.a{fill:#3b1500;}</style></defs><g transform="translate(4.897 -62.588)"><path class="a" d="M97.991,121.308c-1.5.357-2.976.788-4.466,1.179-.424.112-.855.2-1.38.319.027-.21,0-.365.064-.446,2.737-3.423,4.081-7.476,5.131-11.627.765-3.028,1.325-6.109,1.935-9.174.221-1.106-.063-1.628-1.167-1.851-1.45-.293-2.938-.4-4.411-.577-.28-.034-.562-.043-.929-.069.738-2.832,1.459-5.551,2.151-8.278.39-1.538.759-3.083,1.083-4.636a9.853,9.853,0,0,0,.2-2.07,2.351,2.351,0,0,0-2.186-2.705,28.139,28.139,0,0,0-9.623-.421c-.334.046-.667.1-1.112.16.017-1.079.074-2.056.041-3.03-.072-2.112-.642-3.073-2.685-3.589a26.81,26.81,0,0,0-12.093-.236,10.784,10.784,0,0,0-1.692.658c-.313-3.532-.621-6.98-.924-10.428-.018-.2-.012-.4-.011-.6,0-.584-.127-1.195-.751-1.291a1.749,1.749,0,0,0-1.3.421c-1.39,1.344-2.777,2.7-4.035,4.167a35.8,35.8,0,0,1-7.6,6.632c-1.951,1.28-3.905,2.556-5.816,3.893a17.752,17.752,0,0,0-5.495,5.827c-.208-.517-.343-.807-.444-1.109-.6-1.79-1.167-3.59-1.79-5.371a12.9,12.9,0,0,1-.754-5.564,15.867,15.867,0,0,0,.059-1.785c-.012-.743.045-1.576-.847-1.885-1-.345-1.413.485-1.877,1.1a12.014,12.014,0,0,0-1.043,1.63,24.554,24.554,0,0,1-7.636,8.413,47.117,47.117,0,0,0-10.049,9.462c-1.706,2.247-3.166,4.681-4.73,7.035a5.815,5.815,0,0,1-.8,1.08c-.574-3.022-1.012-6.018.2-8.986.169-.414.364-.817.529-1.232a.988.988,0,0,0-.346-1.318,2.569,2.569,0,0,0-1.248-.119c-.173.005-.348.177-.51.291-2.478,1.74-4.97,3.46-7.428,5.228a34.308,34.308,0,0,0-7.1,6.922v4.076c.508-.768,1.006-1.542,1.521-2.305.042-.062.273,0,.418.009-.648.949-1.292,1.89-1.939,2.835v2.377a6.752,6.752,0,0,1,.994-1.4C-2.274,101-.575,99.122,1.069,97.2,3,94.944,4.9,92.654,6.833,90.393c.417-.488.791-1.078,1.358-1.19.143,2.343.285,4.609.418,6.875.058.988.125,1.977.135,2.966a2.315,2.315,0,0,1-1.3,2.237c.224-.963.423-1.817.622-2.671l-.2-.107-2.379,3.35-.134-.1.4-2.129-.2-.065-1.733,3.454-.158-.065.1-1.747-.292-.069L-.02,108.265c.237-1.8.452-3.436.668-5.069l-.3-.115-1.679,2.836-.2-.12q.653-2.131,1.3-4.265l-.149-.057-4.058,7.787-.225-.064c.219-1.433.439-2.867.684-4.468l-.924,1.262V124a22.118,22.118,0,0,1,2.719-5.546c1.856-2.449,3.719-4.9,5.726-7.226,2.461-2.851,5.068-5.576,7.628-8.341a12.648,12.648,0,0,1,1.223-1.025,2.237,2.237,0,0,1,.142.489,5.361,5.361,0,0,1-.087.739c-1.244,6.089-.514,12.051,1.153,17.952q.365,1.29.7,2.586c.012.048-.095.127-.156.2l-.709-.61a12.142,12.142,0,0,0-.151,1.817q.575,7.719,1.211,15.435c.07.844-.214,1.271-1.137,1.352.074-.864.162-1.693.211-2.525.052-.891.1-1.785.089-2.677a23.4,23.4,0,0,0-.144-2.525c-.1-.886-.266-1.767-.449-2.64-.159-.76-.382-1.507-.624-2.443-.308,2.865-.519,5.475-.888,8.061-.315,2.207-.818,4.386-1.225,6.58a1.752,1.752,0,0,1-1.561,1.585c1.329-5.21,2.559-10.327,2.617-15.652L7.366,140.931a36.642,36.642,0,0,0,.757-8.436l-2.5,8.487-.172-.017.263-6.583-.221-.011q-.289,1.084-.577,2.169L4.7,136.5l-.012-2.808a8.722,8.722,0,0,0-.767,2.435c-.173.825-.33,1.655-.527,2.475a9.876,9.876,0,0,1-.6,2.589c-.542-2.77-1.016-5.2-1.49-7.622l-.32-.013q-.074,1.565-.148,3.13l-.221.006-.738-4-.284.035.534,7.548a.645.645,0,0,1-.451-.4c-1.02-2.423-1.992-4.869-3.076-7.264a2.724,2.724,0,0,1-.044-2.535c.579-1.154,1.077-2.351,1.708-3.474q5.069-9.026,10.189-18.022c.245-.432.515-.849.771-1.275.223-.372.442-.747.664-1.12A77.636,77.636,0,0,0-4.573,129.8c-.121-.288-.225-.561-.324-.83v11.485c.033.122.065.245.1.366l-.1.063v17.864c.062.116.129.228.19.345,1.495,2.859,2.913,5.759,4.376,8.635a12.7,12.7,0,0,1,1.356,4.7c.279,3.215.522,6.433.765,9.651a7.68,7.68,0,0,1-.063,1.068A76.17,76.17,0,0,0-2.48,166.774l.6,5.936-.285.056-1.9-5.978-.248.054c.7,5.114,1.39,10.228,2.1,15.426L-4.9,176.812v5.2c.624,1.549,1.288,3.085,1.911,4.635-.643-1.01-1.277-2.024-1.911-3.038v6.944c.266.01.53.036.8.031a5.155,5.155,0,0,1,2.716.6,5.463,5.463,0,0,0,1.188.349l.364-.257c-.179-.217-.357-.435-.625-.762,1.125.242,1.167.952,1.282,1.737a4.826,4.826,0,0,1-2.892-.009c-.947-.229-1.889-.477-2.832-.724v1.768c.138.058.272.127.411.183a16.269,16.269,0,0,0,4.661.775,3.381,3.381,0,0,0,2.815-1.011c.168.255.31.7.5.726,1.033.124,1.184.928,1.429,1.673.419,1.274.829,2.551,1.241,3.827a11.3,11.3,0,0,0,7.677,7.5,23.813,23.813,0,0,0,15.506-.145,102.251,102.251,0,0,0,15-6.557c.6-.315,1.291-.448,1.922-.706a14.107,14.107,0,0,0,2.433-1.1c1.7-1.113,3.249-2.467,5-3.474s3.752-1.585,5.515-2.578a37.577,37.577,0,0,0,8.454-7.011,64.473,64.473,0,0,0,7.964-9.813,4.627,4.627,0,0,1,.71-.71l4.859-8.209a17.227,17.227,0,0,0,.769-2.229c.516-2.525,1.024-5.056,1.39-7.606.091-.632-.364-1.343-.669-2.35a4.85,4.85,0,0,1,1.876-2.661,33.278,33.278,0,0,0,6.071-6.52A44.218,44.218,0,0,0,96.9,134.843c.886-2.254,1.541-4.6,2.2-6.938.42-1.477.669-3,.986-4.508C100.459,121.666,99.706,120.9,97.991,121.308ZM-2.95,99.1q.32-.708.638-1.415l.214.113Zm2.94,54.92-1.812-7.358A13.979,13.979,0,0,1-.01,154.024ZM1.469,158.9l-.2-.093.2-.886.2.016a1.637,1.637,0,0,1,.055.513A1.675,1.675,0,0,1,1.469,158.9Zm95.62-57.343c-.333,1.818-.6,3.43-.929,5.028a47.187,47.187,0,0,1-3.442,10.9A4.962,4.962,0,0,1,90,120.252l2.169-2.9-.1-.1q-2.3,1.564-4.6,3.13l-.167-.158,1.325-2.567-.131-.052-1.7,1.533-.272-.221c.6-1.013,1.241-2,1.788-3.045.577-1.1,1.07-2.237,1.589-3.364.47-1.022.924-2.052,1.385-3.078l-.232-.116-5.073,6.546c.52-1.748.037-3.6.739-5.278a13.192,13.192,0,0,0,.444-1.745c-1.286,1.44-1.592,3.292-3.22,4.17a14.693,14.693,0,0,0,.072-2.417c-.147-1.12-1.21-.871-2-.944.961-2.335,1.856-4.529,2.775-6.713a.953.953,0,0,1,.489-.509c1.61-.515,3.143-1.533,4.965-.8a1.008,1.008,0,0,0,.707-.086C93,100.589,94.977,101.333,97.089,101.558ZM83.254,82.272a50.886,50.886,0,0,1,10.892,1.245,17.023,17.023,0,0,1-.254,2.54c-1.024,4.034-2.107,8.054-3.173,12.077a1.752,1.752,0,0,1-.254.692,2.888,2.888,0,0,1-.955.819c-1.275.522-2.583.964-4.038,1.494.075-.333.123-.623.205-.9.729-2.472,1.483-4.937,2.191-7.415.444-1.553.221-1.859-1.256-2.427-1.646-.633-3.261-1.349-4.755-1.973C82.34,86.3,82.785,84.339,83.254,82.272ZM67.783,77.395a1.528,1.528,0,0,1,1.473-1.411,8.06,8.06,0,0,1,1.328-.159c2.677.1,5.353.207,8.026.363a6.236,6.236,0,0,1,1.567.437,1.292,1.292,0,0,1,.955,1.342,36.151,36.151,0,0,1-.8,7.522L78.7,85.37l1.023-1.728-1.952-.562c.1-.266.2-.532.388-1.045L74,84.048l.729-1.427-.124-.141-4.6,3.578c1.076-2.064,2.682-3.474,3.028-5.522a5.676,5.676,0,0,0-2.141.06,8.21,8.21,0,0,0-1.745,1.585,2.41,2.41,0,0,1-.55.267c.125-1.417.239-2.722.354-4.027l-.243-.065q-.627,1.057-1.252,2.116l-.229-.074C67.418,79.4,67.633,78.4,67.783,77.395ZM69.319,94.53l-1.993,2.559a8.215,8.215,0,0,1,.547-2.635c.094-.247.445-.4.7-.58l-.811-.207c-.021-.335-.042-.664-.063-.993l-.248-.033-2.239,5.537-.083-.041c.463-2.224.927-4.449,1.434-6.884,6.511-2.831,12.908-2.326,19.271,1.187-1.51,4.83-2.662,9.655-4.884,14.224-1.03.034-2.066.045-3.1.109s-2.088.182-3.132.276l-.031-.2,4.606-2.215a27.6,27.6,0,0,0-7.145.638l2.8-1.685c-4.233.243-7.525,1.954-10.693,4.088A50.309,50.309,0,0,0,70.152,97.8l-5.963,6.678c1.063-1.8,2.049-3.348,2.919-4.963.862-1.6,1.606-3.262,2.4-4.9ZM48.066,177.546l-12.109,2.888c2.425-1.743,4.578-3.289,6.73-4.837l-.166-.288-9.653,3.721c1.658-1.634,3.4-2.724,4.476-4.454C43.892,169.19,49.1,162.643,53.729,155.6c.163-.249.334-.494.481-.753.138-.241.248-.5.371-.749a209.813,209.813,0,0,1-14.588,15.406l-.286-.2,2.175-3.676-.205-.127-1.21,1.162-.177-.119,1.217-2.449-.2-.1-4.555,4.739-.15-.148c.679-1.146,1.357-2.292,2.221-3.752-.571.536-.893.828-1.2,1.13-.853.83-1.7,1.666-2.554,2.494-.035.034-.125.012-.23.018l.6-1.319-3.716,3.44a42.034,42.034,0,0,1,2.332-4.454c.792-1.432,1.555-2.884,2.241-4.368a32.621,32.621,0,0,0,1.634-4.58l-.3-.136-5.768,8.224c.2-.636.32-1.108.487-1.563a34.983,34.983,0,0,0,2.223-10.068c.008.006.015.008.023.015.237-.79.966-.789,1.569-.925a83.744,83.744,0,0,1,13.437-1.65,31.765,31.765,0,0,0,11.807-2.783,35.522,35.522,0,0,0,6.209-3.8c.4-.3.824-.553,1.238-.828a4.911,4.911,0,0,1-.95,2.615c-.7.707-.555,1.573-.887,2.328a60.107,60.107,0,0,0-2.536,6.357,76.253,76.253,0,0,1-9.226,18.626,13.08,13.08,0,0,1-7.339,5.969c-1.332.389-2.6,1-3.927,1.4-2.259.678-4.546,1.266-6.821,1.893l-.1-.318a47.629,47.629,0,0,0,11.111-4.707Zm-17.529-47.21-4.2,1.965c.093-.705.157-1.191.223-1.693l-.9.385c.017-.54.03-.955.05-1.577-.593.647-1.041,1.138-1.584,1.73.093-1.378.177-2.614.266-3.941l-.785.4c-.007-.514-.012-.943-.02-1.519l-1.093,1.447c-.051-.647-.086-1.091-.134-1.7-.455.634-.787,1.1-1.132,1.578l-.533-.633c-1.147.773-1.088,2.193-1.753,3.227a2.027,2.027,0,0,1-.454-2.512A4.219,4.219,0,0,1,20.7,125.4c1.194-.487,2.345-1.092,3.561-1.513,3.05-1.054,6.106-2.1,9.2-3.014a23.178,23.178,0,0,1,4.816-.878,56.262,56.262,0,0,0,9.851-1.505c.338-.086.691-.118,1.037-.175a1.975,1.975,0,0,1-.932.557c-3.241.94-6.487,1.866-9.728,2.805-2.574.745-5.164,1.444-7.707,2.282a33.147,33.147,0,0,0-3.579,1.648.575.575,0,0,0,.6.145l11.449-3.277c2.815-.806,5.655-1.533,8.436-2.443a15.263,15.263,0,0,0,5.8-3.288c.14.149.343.268.386.43a2.087,2.087,0,0,1,.094,1.021c-.059.212-.571.31-.614.515a8.311,8.311,0,0,0,.192,4.8q.216-.736.434-1.472c.256,4.272.986,8.5.482,12.746a23.581,23.581,0,0,1-1.19,4.284,3.661,3.661,0,0,1-1.882,1.866l-.257-.2q.822-1.386,1.643-2.774l-.165-.09-3.6,3.055-.184-.2q.37-.521.739-1.042l-.1-.082-3.141,2.837-.09-.12c.926-1.563,1.851-3.126,2.861-4.833l-3.089,2.6-.235-.207q.863-1.457,1.724-2.913l-.159-.1-4.977,5.015-.142-.1q1.9-3.834,3.794-7.667l-.263-.152-3.548,4.33-.166-.111.82-1.812a52.335,52.335,0,0,0-7.161,9.067q1.146-3.546,2.291-7.091l-.161-.053-1.315,1.971-.167-.067q.435-1.5.871-3.01l-.2-.082q-1.905,3.219-3.811,6.439a20.259,20.259,0,0,1,.943-3.892c.455-1.195.046-2.47.611-3.666A29.575,29.575,0,0,0,36,132.226l-.171-.084-4.718,6.692c-.027-1.468.967-2.231,1.315-3.253.372-1.091.762-2.177,1.2-3.435l-1.057.527c.314-.991.59-1.867.867-2.744-.094-.064-.188-.128-.283-.191q-1.09,1.309-2.182,2.619c-.724.871-.864,2.127-1.9,2.829C29.553,133.536,30.908,132.148,30.537,130.336Zm-2.226,6.6c-.467-.686-.017-.964.43-1.359C29.022,136.23,28.906,136.627,28.311,136.931Zm-8.155.108c-.016.312-.032.623-.047.935l-.272-.021.029-.928Zm29.4,9.177c-.312,1.17-.312,1.17-1.07.94Zm-18.366,9.259c.577-.516,1.065-.989,1.592-1.412s1.033-.949,1.767-.419l-3.681,7.179-.157-.046C30.878,158.975,31.041,157.172,31.194,155.475Zm37.618-14.79c-.812.547-1.612,1.112-2.418,1.668l-.118-.136,4.17-5.389-.222-.217L65.961,139.3l.34-1.549-4,2.841a41.35,41.35,0,0,1,2.444-4.18,16.587,16.587,0,0,0,2-4.227l-8.43,8.513c2.732-4.533,5.93-8.8,7.325-14.068l-6.766,9.435c2.527-4.72,5.16-9.4,6.15-14.787l-4.357,6.837a26,26,0,0,0,.07-8.685c-.705,2.286-1.288,4.586-1.861,6.888a40.681,40.681,0,0,1-2.028,6.858c1.193-5.049,2.186-10.075-.039-15.374-.111,1.1-.2,1.947-.282,2.791l-.236-.022c-.124-1.368-.277-2.735-.349-4.107a1.328,1.328,0,0,1,.411-.893c1.4-1.337,2.8-2.747,4.752-3.216a22.6,22.6,0,0,1,5.4-.947c5.095.06,10.188.382,15.385.606-.143.759-.247,1.439-.4,2.109-1.163,5.08-2.319,10.161-3.514,15.233a17.511,17.511,0,0,1-1.126,3.693c-1.288,2.625-2.742,5.169-4.142,7.739a6.623,6.623,0,0,1-.606.8C71.132,139.715,70.49,139.555,68.812,140.685Zm10.41-32.944,1.314-.46C80.321,108.258,79.816,108.177,79.222,107.741ZM41.947,88.017a38.584,38.584,0,0,0,.961-3.74,5.166,5.166,0,0,1,2.637-3.895c2.392-1.506,4.749-3.068,7.152-4.557a35.966,35.966,0,0,0,8.966-7.742c.643-.783,1.368-1.5,2.3-2.509.25,4.468,1.258,8.553.223,13.017-.346-1.054-.8-.993-1.319-.481-.141.139-.3.26-.441.4q-2.754,2.715-5.5,5.434c-.592.587-.584.6-1.509.61a25.481,25.481,0,0,0,5.072-6.168l-1.221.521,1.39-2.348-.141-.093-3.506,2.743c-.054-.058-.107-.116-.16-.175L59.2,75.627a5.935,5.935,0,0,0-1.494.92,2.688,2.688,0,0,1-.593.359c-.607-.75-.926.051-1.191.291-1.873,1.694-3.723,3.414-5.526,5.181C49.3,83.451,48.3,84.623,47.262,85.75l-.063-.078L50,80.947l-1.932,1.529.325-1.132c-3.381,2.061-5.09,5.22-6.537,8.612A6.651,6.651,0,0,1,41.947,88.017Zm21.321-5.6-2.226.833A1.549,1.549,0,0,1,63.268,82.419ZM40.4,101.979c.42-2.162.784-4.031,1.147-5.9l.029.04a15.918,15.918,0,0,1,.016-2.185,1.936,1.936,0,0,1,.624-1.1,18.146,18.146,0,0,1,7.238-4.206c1.533-.389,3.052-.833,4.578-1.252l.86-.215,9.362-2.282a22.878,22.878,0,0,1-.372,9.661c-.923,3.236-2.1,6.4-3.208,9.583a8.693,8.693,0,0,1-5.054,5.525,15.108,15.108,0,0,0-1.551.839l-.119-.108.74-.96-4.443,1.755-.165-.239c1.031-1.208,2.061-2.417,3.221-3.778-4.937,2.826-9.31,6.162-14.184,8.7,4.628-3.44,9.174-6.947,12.6-11.641l-.22-.275-9.268,6.69-.214-.209,2.794-4.719-.121-.065L43.04,107.2c.486-1.7,1.473-2.83,1.686-4.248-.852.872-1.6,1.792-2.356,2.706-.713.863-1.435,1.719-2.153,2.578,2.686-5.9,3.378-7.873,3.335-9.958ZM14.38,103.308c.058-.777.087-1.212.124-1.647.064-.754.149-1.558-.577-2.034-.794-.521-1.518-.045-2.211.359-.249.144-.5.291-.745.436l-.207-.189a4.321,4.321,0,0,1,.375-.934c2-2.841,3.917-5.743,6.044-8.483A53.433,53.433,0,0,1,28.351,80.6a25.41,25.41,0,0,0,5.272-4.789c.744-.953,1.414-1.965,2.327-3.243.041,3.276,1.289,5.893,2.158,8.614.151.473.317.943.437,1.424,1.774,7.113,1.778,14.132-1.083,21.012-.418,1-.686,2.07-1.023,3.107a5.1,5.1,0,0,1-.331.981c-1.2,2.065-2.426,4.117-3.643,6.173,1.108-2.083.977-4.474,1.754-6.9-1.951,2.549-3.742,4.888-5.532,7.228l-.143-.078,1.155-2.88-1.1,1.126c.951-2.592,1.813-4.943,2.676-7.294-1.212.95-1.782,2.417-3.069,3.29l.924-3.192c-1.59,2.686-3.12,5.27-4.673,7.895l.15-1.269c-.394.666-.84,1.423-1.289,2.178A6.446,6.446,0,0,1,21.789,116l1.233-5.142-.229-.106-1.556,2.629-.182-.1q.549-3.106,1.1-6.213l-.238-.057c-1.324,3.68-2.647,7.361-4,11.112.3-4.354.593-8.636.888-12.918l-.2-.017q-.963,3.56-1.927,7.119l-.226-.026c-.158-3.9-.316-7.8-.487-12C15.407,101.347,14.973,102.175,14.38,103.308Zm2.633,29.217c.324,1.138.674,2.269.958,3.417a6.152,6.152,0,0,1,.128,1.475c0,1.856-.578,2.5-2.545,2.881q.065-2.157.129-4.3h.166q.288,1.343.578,2.684l.347-.035C17.859,136.659,16.76,134.6,17.013,132.525ZM5.748,171.2q.015-.509.028-1.019l.027,1.009c.133,1.166.259,2.332.4,3.5.145,1.187.306,2.373.461,3.559A11.165,11.165,0,0,1,5.748,171.2Zm4.02-1.137a104.714,104.714,0,0,0,1.06-11.98A67.4,67.4,0,0,0,7.639,170.25c-.191-5.146.872-10.264.042-15.682-.175.452-.249.628-.312.809a28.545,28.545,0,0,0-1.326,7.9c-.033.634-.152,1.264-.241,1.9a9.91,9.91,0,0,1-.154-1.427,55.521,55.521,0,0,0-.51-9.805,7.257,7.257,0,0,0-.232-.82l-.22.017L3.9,158.062a15.228,15.228,0,0,1-.714-2.244A3.734,3.734,0,0,1,4.4,151.562c2.059-1.94,4.1-3.9,6.165-5.83a31.635,31.635,0,0,1,10.3-6.689,19.2,19.2,0,0,1,6.047-1.017c.214.637.453,1.229.613,1.841a46.222,46.222,0,0,1,1.535,17.407c-.369,3.053-.78,6.1-1.3,9.135a27.141,27.141,0,0,1-3.339,8.878,4.5,4.5,0,0,1-1.1,1.378c-1.34,1.008-2.746,1.928-4.126,2.883a17.582,17.582,0,0,1,1.753-2.388c.61-.78,1.188-1.589,1.731-2.418.516-.788.968-1.618,1.449-2.429a29.628,29.628,0,0,0-2.69,1.975,7.1,7.1,0,0,1-2.6,1.721l3.175-6.041-5.387,5.47,2.331-7.2-.311-.132-6.808,11.5a73.973,73.973,0,0,0,3.754-13.4q-2.835,6.235-5.671,12.472c1.341-5.96,2.98-11.845,3.015-18.046Q11.352,165.348,9.768,170.062Zm3.6,33.354,3.145,1.508C15.272,204.784,13.884,204.958,13.37,203.416Zm31.184-6.437A86.243,86.243,0,0,1,27.3,204.6a39.218,39.218,0,0,1-6.291,1.014,2.186,2.186,0,0,1-1.418-.264c-1.53-1.062-3-2.216-4.651-3.46l6.157,1.854.085-.185-3.156-2.717,4.825,1.028-4.512-3.43c.038-.083.077-.167.115-.251l3.085.468-1.4-.944c1.2-1.148,2.625-.319,3.923-.619l-.48-.565a2.829,2.829,0,0,0,.485-.019,1.714,1.714,0,0,0,.353-.176c-3.829-3.354-8.51-4.1-13.236-4.732,2.1-.417,4.192-.737,6.265-1.152a3.931,3.931,0,0,1,2.728.3,15.784,15.784,0,0,0,2.483.994c3.685,1.163,7.389,2.265,11.069,3.443a24.205,24.205,0,0,0,10.85,1.143,7.744,7.744,0,0,1,.824,0A9.491,9.491,0,0,1,44.554,196.979Zm19.5-19.071a60.025,60.025,0,0,1-6.417,10.2,9.266,9.266,0,0,1-3.079,2.512,28.718,28.718,0,0,0-2.908,1.8,2.972,2.972,0,0,1-2.624.429l1.955-.841c-1.206-.063-2.044-.136-2.882-.144a68.633,68.633,0,0,1-7.288-.931c-1.651-.191-3.3-.4-4.953-.595a37.1,37.1,0,0,0,6.83-2.5l-3.419-.013-.007-.245,2.12-.888-.044-.173-4.711.488-.03-.244,2.042-.78-.065-.132-4.674.3-.015-.336c.826-.163,1.651-.328,2.478-.487a54.2,54.2,0,0,0,10.471-2.888,41.771,41.771,0,0,1,9.283-2.617c.075-.012.163.056.245.088-.027.143-.053.286-.1.571a29.362,29.362,0,0,0,8.169-3.746A8.614,8.614,0,0,1,64.051,177.908Zm16.006-14.6c-1.453,4.514-4.21,8.3-6.97,12.071-.623.851-1.33,1.641-2,2.459l-.046-.056,5.545-9.369-.727.323,1.406-3.562-.183-.123-5.709,8.9-.208-.13,1.243-2.353-.084-.077-.976.956a13.9,13.9,0,0,1,2.455-4.7,64.646,64.646,0,0,0,6.765-9.057,4.61,4.61,0,0,1,.479-.572l.275.129C80.908,159.871,80.6,161.629,80.057,163.312Zm2.449-18.567c-.1,1.781-.246,3.561-.416,5.338a7.2,7.2,0,0,1-.388,1.726,38.974,38.974,0,0,1-4.063,7.929,4.99,4.99,0,0,1-.894.973q-3.663,3.261-7.344,6.5c-.263.232-.56.425-.841.636l-.13-.148,4.9-6.645-.076-.05-8.908,7.95c-.046-.045-.091-.091-.136-.136l5.412-9.79-.209-.144-3.445,4.136c.575-2.014,1.346-3.889,2.079-5.778a19.448,19.448,0,0,0,.833-6.048c-.983,2.521-1.931,4.953-2.88,7.385l-.364-.166c.934-2.393,1.919-4.767,2.776-7.187a2.733,2.733,0,0,1,1.7-1.654,29.826,29.826,0,0,0,5.027-2.53c2.293-1.626,4.373-3.552,6.544-5.35.237-.2.474-.391.874-.719C82.54,142.388,82.571,143.569,82.506,144.745Zm6.41-.216c1.013-2.38,2.39-4.272,2.643-6.653l-1.2,1.319c.058-.4.084-.586.14-.98l-.506.5-.138-.248q.213-.741.428-1.481l-.122-.069q-1.637,2.1-3.274,4.2c1.092-2.136,2.267-4.226,2.224-6.724l-.9.362c.576-1.605,1.081-3.01,1.665-4.635l-3.252,2.618-.117-.108,1.521-1.834-.125-.121L83.031,134c.086-.388.144-.651.213-.967l-3.885,3.538L79.2,136.4l.885-1.333-.1-.083-2.351,1.978a3.908,3.908,0,0,1,.455-1.366,14.439,14.439,0,0,1,1.629-3.45c.84-.985,2.189-1.519,3.24-2.345a28.431,28.431,0,0,1,10.957-5.189c.916-.227,1.821-.5,2.735-.731.365-.093.739-.148,1.106-.219C96.828,131.43,93.629,138.131,88.916,144.529Z"/><path class="a" d="M32.353,141.281c.441-.742.88-1.485,1.284-2.248l-.754,1.273-.7,1.183A2.576,2.576,0,0,0,32.353,141.281Z"/><path class="a" d="M41.545,96.078a23.324,23.324,0,0,0,2.024-1.195A64.921,64.921,0,0,1,52.6,89.518c1.175-.6,2.292-1.3,3.732-2.129l-1.443-.234-.861.215c-.432.221-.848.48-1.3.656-4.417,1.739-8.371,4.11-11.159,8.092Z"/><path class="a" d="M36.152,83.1a5.365,5.365,0,0,0-2-4.3c.355-.691.682-1.328,1.01-1.965l-.087-.064C34.138,77.847,33.2,78.929,32.253,80a48.58,48.58,0,0,1-7.924,6.957,32.144,32.144,0,0,0-5.9,5.208,16.2,16.2,0,0,0-3.47,5.856c1.093-1.422,1.954-2.633,2.91-3.764a35.25,35.25,0,0,1,6.586-5.772A37.052,37.052,0,0,0,31.1,83c.875-1,1.658-2.085,2.581-3.255Z"/><path class="a" d="M20.731,141.006A46.055,46.055,0,0,0,6.788,152.759a12.54,12.54,0,0,0-1.054,2.119C6.926,154.388,18.87,143.323,20.731,141.006Z"/><path class="a" d="M24.377,138.781a30.115,30.115,0,0,0,.992,8.959C25.983,145.917,25.446,140.5,24.377,138.781Z"/><path class="a" d="M68.628,93.838c.752-.226,1.526-.393,2.25-.687a27.618,27.618,0,0,1,10.2-1.7c.292,0,.585,0,1.143.009a10.163,10.163,0,0,0-6.829-.942,19.252,19.252,0,0,0-5.872,2.448,5.086,5.086,0,0,0-.88.922S68.628,93.838,68.628,93.838Z"/></g></svg>