<svg xmlns="http://www.w3.org/2000/svg" width="116.18" height="160.418" viewBox="0 0 116.18 160.418"><defs><style>.a{fill:#3b1500;}</style></defs><g transform="translate(-388.898 -343.16)"><path class="a" d="M502.577,409.927l-.223.092,2.724,6.155v-3.416c-.028.164-.056.331-.1.6Z"/><path class="a" d="M505.078,486.258a1.812,1.812,0,0,1-.616.448c-1.89.755-3.825,1.4-5.955,2.156,1.941-1.617,3.669-3.057,5.4-4.5l-.118-.189-4.377,1.24,3.843-3.78-5.845,2.049-.159-.257,2.285-2.53-1.7.705c-.327-1.783,1.29-2.586,1.8-3.949l-.8.1a3.216,3.216,0,0,0,.275-.453,1.984,1.984,0,0,0,.052-.429c-5.364,1.471-8.863,5.289-12.286,9.218.884-2.166,1.852-4.266,2.723-6.406a4.294,4.294,0,0,1,1.915-2.307,17.407,17.407,0,0,0,2.4-1.665c3.279-2.659,6.515-5.373,9.8-8.018.469-.376.921-.765,1.366-1.161v-8.959c-.331.364-.664.727-.981,1.1-1.169,1.391-2.35,2.772-3.526,4.157a40.531,40.531,0,0,0,1.837-7.73l-2.07,3.109-.228-.142q.233-1.233.467-2.467l-.184-.064q-1.2,2.293-2.393,4.589l-.24-.12.518-2.331-.159-.02q-1.269,2.221-2.539,4.443l-.316-.188c.35-.851.7-1.7,1.049-2.552a59.252,59.252,0,0,0,3.674-11.286,45.594,45.594,0,0,1,3.2-10.04c.034-.075.149-.115.227-.17l.458.439a27.42,27.42,0,0,0,1.2-5.395V419.066a15.622,15.622,0,0,1-2.335-4.495,70.407,70.407,0,0,0-4.183-11.622,5.225,5.225,0,0,1-.232-.782l.282-.173c1.322,1.416,2.739,2.757,3.947,4.264a28.473,28.473,0,0,1,2.521,3.771v-4.456c-.112-.134-.225-.266-.348-.389-1.992-1.992-3.994-3.979-6.1-5.849-.522-.463-1.443-.477-2.545-.806a5.294,5.294,0,0,1-1.3-3.312,36.357,36.357,0,0,0-2.288-9.462,48.32,48.32,0,0,0-5.755-12c-1.521-2.166-3.27-4.178-5-6.188-1.094-1.273-2.335-2.418-3.516-3.614-1.358-1.375-2.512-1.151-3.171.659-.576,1.58-1.074,3.188-1.614,4.782-.154.454-.335.9-.541,1.449-.176-.15-.334-.218-.369-.326-1.472-4.557-4.357-8.224-7.51-11.681-2.3-2.521-4.771-4.887-7.2-7.29-.875-.866-1.522-.922-2.391-.05-1.14,1.145-2.131,2.44-3.182,3.674-.2.234-.378.487-.623.8-2.137-2.378-4.181-4.673-6.251-6.946-1.167-1.282-2.353-2.549-3.575-3.78a10.7,10.7,0,0,0-1.769-1.425c-1.493-.973-2.518-.892-3.782.363a30.769,30.769,0,0,0-6.18,8.521c-.159.331-.314.665-.524,1.11-.973-.666-1.829-1.306-2.737-1.862-1.969-1.207-3.188-1.267-4.889.286a29.3,29.3,0,0,0-7.5,10.882,11.918,11.918,0,0,0-.419,1.939c-3.409-1.841-6.737-3.638-10.064-5.438-.19-.1-.369-.229-.55-.349-.531-.353-1.166-.6-1.629-.092a1.906,1.906,0,0,0-.4,1.437c.388,2.076.791,4.158,1.369,6.187a39.139,39.139,0,0,1,1.468,10.926c-.009,2.549-.022,5.1.046,7.647a19.393,19.393,0,0,0,2,8.519c-.6-.122-.942-.174-1.278-.263-1.993-.532-3.976-1.1-5.975-1.6a14.111,14.111,0,0,1-5.527-2.663,17.413,17.413,0,0,0-1.592-1.13c-.685-.436-1.41-.99-2.228-.362-.916.7-.409,1.579-.125,2.376a13.242,13.242,0,0,0,.859,1.933,26.836,26.836,0,0,1,3.07,12.028,51.509,51.509,0,0,0,2.574,14.86c1.022,2.909,2.362,5.706,3.566,8.55A6.344,6.344,0,0,1,400.1,429c-3.1-1.3-6.1-2.7-8.072-5.6-.275-.4-.525-.824-.8-1.225a1.078,1.078,0,0,0-1.409-.478,2.807,2.807,0,0,0-.861,1.066,1.282,1.282,0,0,0-.042.64c.094,3.307.161,6.615.293,9.921.286,7.171,2.69,13.671,6.291,19.8a64.241,64.241,0,0,0,11.846,14.395,7.1,7.1,0,0,1,1.518,2.07,34.313,34.313,0,0,0,7.508,10.735,6.029,6.029,0,0,1,.793,1.315,14.818,14.818,0,0,1-5.435-.98,7.479,7.479,0,0,0-1.23-.4,1.093,1.093,0,0,0-1.327.691,3.464,3.464,0,0,0,.113,1.515c.033.171.28.321.457.44,4.992,3.389,8.831,7.981,12.944,12.3,2.728,2.862,5.58,5.606,8.409,8.37h5a87.259,87.259,0,0,1-6.811-6.009c-4.038-4.008-7.867-8.228-11.779-12.363a1.575,1.575,0,0,1-.2-.406l.8-.1-.016.046c.12-.093.238-.263.362-.267a40.7,40.7,0,0,0,9.72-1.867,51.342,51.342,0,0,1,19.5-1.611c3.508.359,7,.812,10.509,1.211a13.885,13.885,0,0,1,5.1,1.592c3.1,1.682,6.179,3.4,9.259,5.116a8.36,8.36,0,0,1,.936.7A83.139,83.139,0,0,0,456,483.592l5.774,3.028-.12.294-6.6-1.866-.1.258,15.327,7.379L456.329,490.9l-.079.349c2.9.988,5.762,2.119,8.713,2.923,2.9.791,5.9,1.25,8.853,1.854-5.755-.1-11.5-.382-17.25-.076l-.043.344,13.615,2.625-20.446,3.525a62.966,62.966,0,0,0,21.368-1.428,19.336,19.336,0,0,1-4.272,2.565h5.881a13.933,13.933,0,0,0,4.067-4.17,5.646,5.646,0,0,1,2.184-2.115,5.907,5.907,0,0,0,1.033-.872l-.014-.487-1.071.112c.9-.881,1.571-.491,2.355-.124a5.27,5.27,0,0,1-1.749,2.632c-1.836,1.708-3.723,3.361-5.6,5.024h1.772a35.054,35.054,0,0,0,3.488-2.078,17.744,17.744,0,0,0,3.513-3.783,3.691,3.691,0,0,0,.774-3.175c.334,0,.828.141.965-.02.735-.868,1.558-.521,2.385-.3,1.414.385,2.826.779,4.237,1.172a12.345,12.345,0,0,0,11.46-2.482,26.209,26.209,0,0,0,2.61-2.367Zm-12.019-88.427a42.559,42.559,0,0,1,4.783,8.479,5.416,5.416,0,0,1,.348,1.4q.768,5.3,1.5,10.609c.053.38.05.767.073,1.15l-.213.03-3.108-8.466-.092.038q.942,6.456,1.883,12.91l-.206.042q-2.832-5.415-5.665-10.831l-.258.1,1.7,5.632c-1.49-1.737-2.735-3.569-4.016-5.375a21.258,21.258,0,0,0-5.012-4.4l5,7.073-.371.232c-1.619-2.293-3.19-4.621-4.88-6.859a2.984,2.984,0,0,1-.484-2.547,32.513,32.513,0,0,0,.72-6.106c-.1-3.07-.6-6.126-.936-9.188-.036-.334-.07-.668-.129-1.23,1.281.865,2.377,1.548,3.409,2.315,1.565,1.164,3.1,2.369,4.617,3.594A7.821,7.821,0,0,1,493.059,397.831Zm-17.441-27.515c.346-.972.646-1.959.982-2.934.134-.388.31-.762.466-1.14,6.525,5.524,10.707,12.476,13.7,20.628-1.56-2.358-2.455-4.753-4.474-6.418.145.567.29,1.133.482,1.885l-.809-.718c.068.341.111.553.153.764l-.309-.024-1.093-1.281-.136.069,1.854,5.512c-1.29-2.282-2.488-4.612-4.791-6.078-.056.271-.116.565-.215,1.042-1.116-1.492-2.092-2.8-3.222-4.309.157,1.665.293,3.1.428,4.541l-.169.042-.755-2.492-.186.042c.032,2.1.065,4.2.1,6.446l-.753-.776c.3,1.937.594,3.8.885,5.672l-.256.045q-.341-.8-.682-1.609l-.134.037.387,3.335a4.256,4.256,0,0,1-.971-1.237c-.741-1.184-1.792-2.274-2.164-3.562-.392-1.36-.066-2.911-.187-4.368A31.079,31.079,0,0,1,475.618,370.316Zm-2.585,20.634c1.618,2.755,3.062,5.613,4.562,8.437a7.339,7.339,0,0,1,.362,1.033c-2.289-.237-2.821.252-2.8,2.463.01,1.07.042,2.139.065,3.208l-.2.026q-1.2-3.523-2.4-7.048l-.332.073c-.037,1.738-.074,3.477-.118,5.5l-1.208-1.243c.063,1.863.122,3.61.182,5.357a45.063,45.063,0,0,1-2.339-4.746,18.153,18.153,0,0,0-2.646-4.373q1.341,6.406,2.684,12.813c-2.488-5.222-4.451-10.707-8.415-15.151l4.528,11.85c-2.782-5.146-5.459-10.363-9.778-14.513l3.609,8.091a28.424,28.424,0,0,0-7.875-5.295c1.659,2.019,3.4,3.936,5.159,5.845a44.456,44.456,0,0,1,5.03,5.98c-3.884-4.129-7.869-8.061-14.039-9.225l2.375,1.938-.163.2c-1.322-.712-2.661-1.4-3.955-2.156a1.452,1.452,0,0,1-.566-.913c-.375-2.083-.821-4.2-.071-6.269a24.773,24.773,0,0,1,2.388-5.492c3.124-4.609,6.485-9.057,9.818-13.661.606.587,1.164,1.092,1.683,1.635q5.9,6.178,11.771,12.378A19.068,19.068,0,0,1,473.033,390.95Zm-4.218,34.357c-.076-.548-.144-1.044-.213-1.541C469.481,424.755,469.481,424.755,468.815,425.307Zm-2.479,16.614,4.328,7.68-.137.116c-1.545-1.234-3.089-2.469-4.545-3.631-.122-.837-.26-1.566-.328-2.3C465.587,443.066,465.411,442.271,466.336,441.921Zm-2.884-20.862-.3.045q-.252-.651-.505-1.3l-.135.041q.347,2.286.7,4.572l-.164.01-2.683-5.519c.182,1.565.346,2.974.51,4.382l-.33.09q-.81-1.664-1.618-3.327l-.183.088q.787,3.778,1.574,7.558l-.177.069-4.705-8.078-.3.149q.9,2.92,1.81,5.843l-.2.084-1.159-1.839a57.19,57.19,0,0,0,3.954,11.99l-5.085-6.36-.146.116,1,2.385-.161.113-2.22-2.608-.2.137q1.786,3.675,3.574,7.352a22.052,22.052,0,0,1-2.979-3.2c-.816-1.134-2.225-1.529-2.975-2.765a32.275,32.275,0,0,0-2.678-3.379l-.18.105c1.051,2.687,2.1,5.373,3.26,8.333-1.356-.86-1.453-2.226-2.174-3.158-.771-1-1.526-2.007-2.407-3.167l-.156,1.281-1.979-2.443-.345.142q.537,1.783,1.074,3.567c.357,1.185,1.418,2.069,1.434,3.437-1.215-1.431-1.665-3.5-3.54-4.255-.241,1.641-.477,3.242-.737,5.009l-1.409-1.222c-.063.343-.123.669-.193,1.056l-1.408-1c.233.931.41,1.635.624,2.487l-3.433-2.617c-.047.407-.07.608-.111.956l-1.4-.9.66,1.868-1.629-.9c.305.8.526,1.378.757,1.983l-.9.105c.015,1.511,1.345,2.312,1.886,3.541a2.216,2.216,0,0,1-2.563-1.1,4.607,4.607,0,0,1-.579-3.276c.275-1.382.417-2.8.766-4.157.876-3.416,1.761-6.833,2.793-10.2a25.423,25.423,0,0,1,2.1-4.92,61.606,61.606,0,0,0,4.561-9.887c.125-.361.308-.7.465-1.05a2.165,2.165,0,0,1-.053,1.184c-1.1,3.522-2.207,7.038-3.3,10.559-.87,2.8-1.793,5.577-2.561,8.4a36.384,36.384,0,0,0-.653,4.255.627.627,0,0,0,.5-.464q1.956-6.206,3.908-12.412c.961-3.051,2.009-6.079,2.854-9.163a16.683,16.683,0,0,0,.5-7.27c.22-.038.451-.15.624-.092a2.275,2.275,0,0,1,.988.529c.158.181-.061.707.1.869a9.08,9.08,0,0,0,4.489,2.715l-1.08-1.282c4.048,2.339,8.344,4.221,11.911,7.237a25.72,25.72,0,0,1,3.188,3.665,4,4,0,0,1,.568,2.84l-.339.111q-.77-1.584-1.54-3.167l-.181.1Zm-9.625,15.7c-.257-.529-.457-.939-.656-1.35q-.354-.728-.707-1.455c.452.828.865,1.676,1.276,2.524C453.763,436.528,453.772,436.583,453.827,436.761Zm-6.488.785c-.906.012-.888-.565-.98-1.21C447.128,436.476,447.421,436.821,447.339,437.546Zm-10.821,7.647c1.232.39,2.475.752,3.692,1.184a6.719,6.719,0,0,1,1.422.772c1.691,1.12,1.934,2.035,1.094,4.055q-1.928-1.357-3.84-2.706l.1-.149,2.8,1.089.177-.337C440.8,446.912,438.256,446.672,436.518,445.193Zm6.65.7-.829-.586.188-.256.823.607Zm-11.425-36.874-.319.069q-1.311-2.694-2.62-5.389l-.132.071c.121.681.241,1.363.433,2.446-1.254-1.464-1.693-3.047-2.858-4.1.282,1.3.67,2.538,1.048,3.778.357,1.17.7,2.343,1.054,3.515-3.763-6-5.143-7.821-7.07-9.038.446,1.545.908,3.146,1.474,5.105l-4.688-4.6.054,0a17.129,17.129,0,0,1-1.982-1.33,2.115,2.115,0,0,1-.633-1.234,19.841,19.841,0,0,1,.525-9.132c.569-1.633,1.079-3.285,1.616-4.928q.161-.457.322-.914c1.176-3.275,2.351-6.549,3.558-9.909a24.978,24.978,0,0,1,8.583,6.157c2.4,2.791,4.575,5.768,6.8,8.7a9.5,9.5,0,0,1,1.994,7.936,16.483,16.483,0,0,0-.17,1.918l-.17.044-.429-1.253c-.392,1.863-.734,3.485-1.075,5.107l-.318.007c-.481-1.667-.963-3.334-1.505-5.212-.4,6.2.01,12.2-.608,18.174-.349-6.292-.808-12.548-3.023-18.5l-.383.035Q431.484,402.775,431.743,409.014ZM418.7,372.844c-.174.756-.347,1.512-.581,2.532A1.693,1.693,0,0,1,418.7,372.844Zm30.989,1.37c-.571.992-1.092,2.013-1.635,3.021l-.2-.093c.235-1.727.471-3.453.754-5.533a30.163,30.163,0,0,0-3.722,6.9c.045-1.073.09-2.147.149-3.565-2.328,4.006-2.751,8.037-2.714,12.211a54.884,54.884,0,0,0-5.449-11.319c.811,3.072,1.622,6.143,2.5,9.458-1-2.051-1.819-3.885-2.767-5.65-.939-1.749-2.007-3.429-3.018-5.14l-.2.12,1.133,3.359a8.969,8.969,0,0,1-2.073-2.086c-.169-.234-.093-.644-.106-.991l-.676.615c-.319-.182-.632-.361-.944-.541l-.18.206,3.7,5.377-.088.051-5.413-5.453c1.341-7.642,5.654-13.169,12.689-16.855,3.493,4.286,7.2,8.242,10.027,13.02C450.861,372.283,450.247,373.234,449.684,374.214Zm2.078-2.139c.761.785.383,1.2-.372,1.475Zm.706-12.262a1.1,1.1,0,0,0,.348-.695c.353-2.439,2.22-3.791,3.7-5.581,1.456,1.4,2.768,2.61,4.025,3.875a51.61,51.61,0,0,1,7.861,9.7,5.424,5.424,0,0,1,.886,4.148c-.513-1.432-.923-2.577-1.334-3.722l-.147.03q.042,3.037.085,6.075l-.244.057-1.542-2.754-.126.087q.186,1.237.374,2.473l-.365.115c-.562-1.157-1.081-2.338-1.7-3.464-.652-1.186-1.394-2.323-2.109-3.474-.649-1.045-1.314-2.079-1.972-3.118l-.247.143q1.458,4.283,2.914,8.567c-1.281-1.527-3.261-2.2-4.367-3.853a14.476,14.476,0,0,0-1.324-1.456c.539,2.04,2.043,3.434,1.863,5.447a16.233,16.233,0,0,0-2.161-1.521c-1.109-.541-1.522.579-2.062,1.251-1.55-2.283-3.011-4.42-4.449-6.573a1.043,1.043,0,0,1-.169-.753C450.7,363.041,450.7,361.03,452.468,359.813Zm-14.175-14.458a18.6,18.6,0,0,1,2.163,1.761c3.061,3.364,6.073,6.772,9.1,10.167a1.882,1.882,0,0,1,.478.648,3.138,3.138,0,0,1,.172,1.364c-.292,1.477-.677,2.935-1.07,4.581-.259-.269-.494-.487-.7-.73-1.814-2.154-3.608-4.326-5.441-6.464-1.148-1.339-1.561-1.321-2.968-.316-1.57,1.119-3.2,2.16-4.663,3.146l-4.766-4.977A55.672,55.672,0,0,1,438.293,345.355ZM416.435,363.51a8.816,8.816,0,0,1,.655-1.307c1.7-2.381,3.413-4.755,5.165-7.1a6.821,6.821,0,0,1,1.341-1.165,1.412,1.412,0,0,1,1.8-.062,39.426,39.426,0,0,1,6.378,5.257l-1.093,1.419-.959-1.974-1.688,1.442-.719-.984c-.236,1.763-.44,3.288-.67,5.005l-.862-1.525-.2.029.493,6.345c-1.233-2.224-1.552-4.538-3.21-6.087-.465.708-1.133,1.306-1.235,1.988a8.982,8.982,0,0,0,.394,2.545,2.6,2.6,0,0,1-.088.663l-3.458-2.748-.205.183,1.174,2.415-.2.164c-.8-.773-1.579-1.569-2.406-2.312A1.668,1.668,0,0,1,416.435,363.51Zm-10.271,24.265c.067-3.087.063-6.177.153-9.264a39.293,39.293,0,0,0-1.659-12.837c-.327-1.058-.542-2.151-.9-3.607,4.225,2.463,8.556,4,12,7.636-1.17-.32-1.39.134-1.234.913.043.212.057.43.1.643q.816,4.145,1.64,8.288c.179.893.192.891-.352,1.743a27.833,27.833,0,0,0-2.569-8.339c-.078.432-.136.75-.26,1.427l-1.3-2.682-.17.072q.2,2.426.389,4.85l-.256.039q-.845-2.1-1.688-4.2a6.486,6.486,0,0,0-.061,1.916,2.941,2.941,0,0,1-.03.757c-1.049.1-.511.875-.452,1.261.416,2.727.871,5.45,1.4,8.158.318,1.645.785,3.262,1.185,4.891l-.109.01-2.623-5.4c.088,1.022.151,1.752.231,2.682l-.838-.978c-.157,4.324,1.694,7.784,3.916,11.147a7.238,7.238,0,0,1-1.711-1.255c-.969-1.02-1.773-2.219-2.831-3.128A5.643,5.643,0,0,1,406.164,387.775Zm-10.047,61.37c-.807-1.819-1.583-3.652-2.346-5.491-.031-.075.168-.246.261-.375l2.657,6.517A2.733,2.733,0,0,1,396.117,449.145Zm-3-7.315.231-.127q.337.78.674,1.561Q393.572,442.547,393.12,441.83Zm8.094,4.057-.231.113q-1.551-1.879-3.1-3.757l-.142.1,4.656,8.39-.2.166-3.661-3.315c.283.763.494,1.333.706,1.9-1.573-.537-1.945-1.817-2.309-3.053-.779-2.649-1.463-5.325-2.223-7.98-.9-3.123-1.84-6.233-2.737-9.356a3.182,3.182,0,0,1-.267-1.955c2.222,1.281,4.374,2.516,6.52,3.759.936.543,1.878,1.077,2.786,1.664a2.528,2.528,0,0,1,1.258,2.529l-2.06-2.177-.219.12,1.621,4.187-.173.061-1.7-1.643-.182.146,2.106,3.66-.155.1-1.533-1.142-.239.224,4.406,7.474-4.22-3.662-.282.2Q400.428,444.268,401.214,445.887Zm3.452-17.694c-.953.41-.955,1.357-1,2.232-.018.314-.034.628-.051.942l-.3.074a4.768,4.768,0,0,1-.626-.9c-1.388-3.531-2.876-7.03-4.093-10.62a58.418,58.418,0,0,1-2.587-16.333,27.746,27.746,0,0,0-1.19-7.691c-.421-1.253-.94-2.472-1.555-4.075,3.012,1.936,6.148,2.374,9.153,3.221.522.147,1.05.278,1.561.459,7.553,2.667,13.955,6.891,18.5,13.643.664.985,1.474,1.872,2.217,2.8a5.461,5.461,0,0,1,.694.892c1.16,2.339,2.293,4.692,3.434,7.04-1.231-2.265-3.49-3.585-5.236-5.757,1.149,3.314,2.2,6.356,3.257,9.4l-.156.083c-.586-.845-1.171-1.691-1.931-2.788.152.7.231,1.071.363,1.684l-5.038-6.832c.136,1.677,1.13,3.08,1.15,4.779l-2.353-2.765,4.383,9.016-1.066-.9c.369.759.791,1.622,1.209,2.487a7.036,7.036,0,0,1,.924,2.608l-3.945-4.221-.235.144,1.459,3-.2.1-5-4.743-.2.184,7.724,10.336-11.243-8.589-.135.171,5.329,6.044-.159.191-11.235-6.785c.637,1.153,1.131,2.047,1.806,3.271-.673-.521-1.053-.81-1.427-1.105C406.219,428.379,405.538,427.818,404.666,428.193Zm7.925,42.961c.889,1.258,1.576,2.214,2.246,3.182a28.281,28.281,0,0,1,2.331,3.037A10.251,10.251,0,0,1,412.591,471.154Zm14.094,4.866a24.489,24.489,0,0,1-4.7-.033c-.611-.012-1.221-.042-1.831-.063l0,.253,2.806.63a34.165,34.165,0,0,1-4.23.413,1.511,1.511,0,0,1-1.471-.8c-.57-.857-1.176-1.693-1.694-2.581-1.829-3.135-3.623-6.291-5.442-9.432a8.177,8.177,0,0,0-.656-.86l-.263.186,2.385,5.973c-1.536-2.883-3.243-5.688-4-9.13.572.248.923.374,1.249.547a73.053,73.053,0,0,0,13.946,5.338c1.249.364,2.5.718,3.739,1.114.252.08.628.316.642.5.071.964.731,1.117,1.48,1.288.782.179,1.538.468,2.306.709l-.012.435-7.5.2,1.364.776-.96.226,1.184.678-1.16.393c3.748,1.228,7.55,1.539,11.043,3.042C432.157,475.927,429.432,475.533,426.685,476.02Zm10.565-15.2-5.844-4.2-.143.2,1.631,1.832-.167.17-2.567-1.681a9.548,9.548,0,0,0,1.758,2.166c.649.655,1.31,1.3,1.939,1.971a10.773,10.773,0,0,1,2,2.109l-7.846-3.232-.2.284,2.764,2.019-.127.206-4.091-1.736-.139.28,7.2,4.059a.7.7,0,0,1-.633.173c-2.824-.53-5.639-1.117-8.476-1.571a2.975,2.975,0,0,1-2.337-1.487c-.7-1.222-1.495-2.4-2.139-3.649q-5.175-10.057-10.294-20.144c-.246-.483-.464-.981-.7-1.47-.205-.428-.414-.854-.621-1.28a84.85,84.85,0,0,0,12.819,27.408,16.421,16.421,0,0,1-3.972-1.227,1.229,1.229,0,0,1-.461-.448c-1.571-2.4-3.5-4.594-4.468-7.342-1.115-3.167-2.228-6.343-3.139-9.572-1.117-3.962-2.031-7.98-3.011-11.979a13.861,13.861,0,0,1-.2-1.733,2.519,2.519,0,0,1,.532.166,5.746,5.746,0,0,1,.62.524c4.8,4.8,10.677,7.726,17.062,9.761q1.395.444,2.779.919c.051.017.058.163.091.264l-.983.278a13.111,13.111,0,0,0,1.565,1.232q7.385,4.127,14.8,8.193a1.164,1.164,0,0,1,.547,1.851c-.742-.588-1.445-1.168-2.174-1.713-.781-.584-1.569-1.163-2.387-1.693a25.308,25.308,0,0,0-2.389-1.39c-.869-.44-1.771-.821-2.677-1.181-.789-.312-1.6-.559-2.6-.9,2.427,2.006,4.678,3.77,6.814,5.665,1.822,1.616,3.506,3.387,5.261,5.079a1.915,1.915,0,0,1,.505,2.378c-3.949-4.35-7.873-8.553-12.694-11.813l7.914,10.5c-2.3-2.065-4.462-4.242-7.236-5.771l6.233,7.39Zm.816,10.065a15.265,15.265,0,0,1,7.8,2.781Zm12.929,4.5-.684-.719.133-.171a1.8,1.8,0,0,1,.5.26,1.823,1.823,0,0,1,.258.5Zm14,3.377-.913-.64.936.583c1.143.581,2.283,1.169,3.43,1.741,1.17.582,2.348,1.149,3.522,1.723A12.2,12.2,0,0,1,464.993,478.756Zm14.589-10.267c-.344-1.027-.734-2.041-1.163-3.036-.407-.945-.891-1.857-1.342-2.783a32.422,32.422,0,0,0,.181,3.641c.059,1.115.449,2.225,0,3.407l-3.6-6.533c.611,2.88,1.141,5.376,1.742,8.206l-5.161-6.463-.308.2,6.385,13.134a80.811,80.811,0,0,0-9.954-11.492q3.977,6.341,7.955,12.681c-4.626-4.812-9-9.851-14.637-13.617l6.688,8.568a114.691,114.691,0,0,0-10.284-8.182,73.62,73.62,0,0,0,9.173,10.236c-4.806-2.925-8.832-6.976-14.272-9.483.307.431.423.606.55.772a31.186,31.186,0,0,0,6.406,5.969c.558.411,1.061.9,1.583,1.36a10.861,10.861,0,0,1-1.395-.719,60.723,60.723,0,0,0-9.245-5.44,7.906,7.906,0,0,0-.888-.282l-.116.21,4.012,3.684a16.727,16.727,0,0,1-2.476-.7,4.081,4.081,0,0,1-3.148-3.673c-.528-3.046-1.089-6.085-1.6-9.133a34.583,34.583,0,0,1,.105-13.417,20.986,20.986,0,0,1,2.714-6.126c.711.188,1.394.327,2.048.55a50.511,50.511,0,0,1,16.8,9.085c2.561,2.175,5.1,4.387,7.548,6.683a29.651,29.651,0,0,1,6.082,8.391,4.923,4.923,0,0,1,.593,1.836c.112,1.828.1,3.664.143,5.5A19.157,19.157,0,0,1,479.582,468.489Zm.089-42.87c-.128-.3-.249-.6-.4-.893-.138-.271-.3-.526-.46-.788a229.13,229.13,0,0,1,5.26,22.578l-.356.14-2.041-4.2-.24.11.331,1.8-.215.091-1.5-2.585-.212.121,1.578,7.007-.226.048c-.636-1.309-1.272-2.618-2.083-4.285.145.844.217,1.313.306,1.778.243,1.277.495,2.553.735,3.83.01.053-.064.121-.121.221-.244-.389-.465-.74-.842-1.342.332,2.021.615,3.741.9,5.46a45.994,45.994,0,0,1-2.656-4.809c-.829-1.584-1.693-3.154-2.632-4.674a35.58,35.58,0,0,0-3.192-4.247l-.3.19c1.316,3.338,2.631,6.676,4.024,10.212-.461-.562-.817-.958-1.131-1.384a38.224,38.224,0,0,0-7.842-8.09l.029-.013c-.577-.692-.138-1.357.1-1.988a91.574,91.574,0,0,1,6.589-13.244,34.733,34.733,0,0,0,4.575-12.44,38.963,38.963,0,0,0,.272-7.952c-.033-.54-.008-1.084-.01-1.627a5.366,5.366,0,0,1,1.812,2.441c.226,1.061,1.1,1.454,1.588,2.211a65.755,65.755,0,0,0,4.268,6.141c4.867,5.938,8.356,12.657,11.425,19.629,1.459,3.314,2.128,6.7,1.021,10.286-.446,1.449-.648,2.973-1.085,4.425-.742,2.469-1.582,4.908-2.382,7.359l-.352-.1a52.062,52.062,0,0,0,2.4-12.965l-.339-.084c-1.515,4.157-3.031,8.314-4.66,12.78-.128-3.261-.242-6.155-.356-9.049l-.363-.023c-.78,3.556-1.56,7.111-2.422,11.042-.491-2.5-.436-4.739-1.364-6.763C486.134,442.77,483.3,434.083,479.671,425.619Zm19.284,65.592,3.269-1.96C501.348,490.3,500.67,491.671,498.955,491.211Z"/><path class="a" d="M418.065,400.876a25.377,25.377,0,0,0,.129-2.565,70.988,70.988,0,0,1,.549-11.466c.165-1.43.193-2.875.307-4.686l-1.083,1.175-.322.915c-.059.526-.074,1.062-.183,1.578-1.075,5.074-1.294,10.106.657,15.046Z"/><path class="a" d="M436.734,500.9c1.383.959,2.825,1.839,4.293,2.677H443.2c-1.514-.959-2.96-2.046-4.407-3.121-2.782-2.067-5.432-4.31-8.2-6.4-4.122-3.115-8.294-6.165-12.442-9.25a3.894,3.894,0,0,0,.573.946A129.731,129.731,0,0,0,436.734,500.9Z"/><path class="a" d="M402.985,397.976a5.865,5.865,0,0,0-5.122-.769l-1.183-2.1-.111.041c.414,1.5.837,3.009,1.238,4.518a53.09,53.09,0,0,1,1.571,11.414,35.1,35.1,0,0,0,1.2,8.514,17.726,17.726,0,0,0,3.249,6.691c-.637-1.853-1.223-3.367-1.679-4.92a38.479,38.479,0,0,1-1.3-9.481,40.531,40.531,0,0,0-1-9.356c-.387-1.4-.9-2.769-1.413-4.314Z"/><path class="a" d="M446.489,446.911a50.377,50.377,0,0,0,2.317,19.791,13.8,13.8,0,0,0,1.3,2.237C450.376,467.557,447.481,450,446.489,446.911Z"/><path class="a" d="M446.657,442.247a32.924,32.924,0,0,0,8.765,4.492C454.129,445.081,448.864,442.3,446.657,442.247Z"/><path class="a" d="M432.334,374.835c.247-.821.561-1.628.729-2.464a30.14,30.14,0,0,1,4.591-10.325c.172-.269.356-.531.7-1.037a11.1,11.1,0,0,0-4.972,5.659,21.042,21.042,0,0,0-1.3,6.827,5.594,5.594,0,0,0,.311,1.358Z"/></g></svg>