<svg xmlns="http://www.w3.org/2000/svg" width="106.682" height="139.081" viewBox="0 0 106.682 139.081"><defs><style>.a{fill:#3b1500;}</style></defs><g transform="translate(-533.232 -140.987)"><path class="a" d="M619.926,251.992a73.891,73.891,0,0,1-11.372-7.279c-1.907-1.493-3.83-2.968-5.691-4.515-1.295-1.076-2.5-2.261-3.827-3.475a5.449,5.449,0,0,0,.3.51,67.657,67.657,0,0,0,8.053,8.863,48.385,48.385,0,0,0,9.158,6.475c3.879,2.118,7.837,4.093,11.75,6.149a48.643,48.643,0,0,1,9.791,6.438c.625.553,1.228,1.13,1.826,1.713v-2.953c-.247-.306-.491-.615-.745-.915a38.98,38.98,0,0,0-11.233-9.09c-2.2-1.2-4.422-2.353-6.636-3.525a.352.352,0,0,0-.261-.027,74.035,74.035,0,0,1,9.686,7.269c-.309-.15-.623-.291-.928-.451C626.506,255.451,623.22,253.713,619.926,251.992Z"/><path class="a" d="M639.914,274.4a45.458,45.458,0,0,0-11.634-2.253,1.817,1.817,0,0,1-1.154-.435,6.153,6.153,0,0,0-1.046-.771l.466,1.031a25.459,25.459,0,0,1-20.261-5.756,5.7,5.7,0,0,1,2.229-.183c.09-.1.165-.247.272-.274a9.162,9.162,0,0,0,3.265-1.543l.833.367a2.984,2.984,0,0,1-.1-.608,1.23,1.23,0,0,1,.131-.373,2.215,2.215,0,0,1-.744-.32,17.242,17.242,0,0,0-5.63-3.506c-2.873-1.229-5.777-2.389-8.613-3.7a55.5,55.5,0,0,1-10.179-5.818A9.607,9.607,0,0,1,585.441,248a5.084,5.084,0,0,0,3.693-2.309,6.906,6.906,0,0,0,1.82-4.1l3.386,1.223.056-.123c-1.556-.815-3.1-1.644-4.67-2.439s-3.127-1.542-4.658-2.44l6.632,1.445.037-.1-3.18-1.377,2.578.293.02-.109-12.392-4,.033-.159,12.772.932.016-.174a52.2,52.2,0,0,0-16.7-2.139c1.594-.234,3.193-.446,4.783-.708,1.61-.267,3.212-.584,4.832-.981l-.716-.166-.023-.1,1.157-.274a47.767,47.767,0,0,0-8.733.148l3.258-1.63-.076-.2-4.612,1.079c-.058-.587-.073-1.174-.181-1.745-.2-1.049-.426-2.094-.7-3.127-.067-.257-.388-.438-.508-.693a28.574,28.574,0,0,0-7.728-9.7c-1.138-.957-2.146-2.07-3.2-3.119a2.262,2.262,0,0,1-.412-.6c2.428,2,4.812,4.053,7.3,5.98s5.082,3.737,7.65,5.57l-9.755-8.848.055-.077,6.7,3.739.011-.022-9.132-6.63.041-.061c2.616,1.653,5.211,3.341,7.856,4.947s5.338,3.128,8.037,4.633l-8.7-6.563c3.194,1.482,6.279,3.171,9.441,4.726l-10.231-6.769.063-.12,9.595,3.96.03-.062c-.418-.223-.85-.425-1.253-.674-2.3-1.42-4.582-2.855-7.005-4.048-2.347-1.156-4.728-2.244-7.1-3.36q-2.406-1.134-4.813-2.264a4.722,4.722,0,0,1-.46-.3,5.282,5.282,0,0,1,2.209.274q6.615,2.439,13.224,4.894l1.125.411a2.793,2.793,0,0,0-.345-.282,113.692,113.692,0,0,0-12.631-5.66c-.208-.074-.5-.149-.577-.308-.287-.592-.855-.792-1.35-1.1q-1.184-.737-2.361-1.485a7.8,7.8,0,0,1-2.84-3.167c-.287-.58-.591-1.153-.891-1.727a25.272,25.272,0,0,0-4.384-6.034,8.9,8.9,0,0,1,2.3-.324c.281-.009.564.017.844,0a.791.791,0,0,0,.748-.585.8.8,0,0,0-.286-.907c-.219-.175-.465-.317-.694-.481-.778-.556-1.574-1.09-2.326-1.679a5.218,5.218,0,0,1-1.847-3.046q-.125-.536-.23-1.075a21.758,21.758,0,0,0-1.155-4.32L567,186.185l.054-.094-5.939-3.708.036-.118,1.321.329.041-.113-8.311-3.625a24.4,24.4,0,0,1,6.643,2.351c2.066,1.09,4.1,2.237,6.128,3.4a42.692,42.692,0,0,1,5.818,3.932c-.237-.258-.471-.519-.712-.774-.27-.286-.541-.573-.82-.851a40.322,40.322,0,0,0-9.552-7.17,34.117,34.117,0,0,0-7.679-3.037,3.967,3.967,0,0,1-2.277-1.309c-.512-.63-1.142-1.164-1.716-1.745a4.1,4.1,0,0,1-1.176-2.558c-.033-.336-.082-.672-.093-1.009a6.838,6.838,0,0,0-2.018-4.613,1.522,1.522,0,0,1-.411-.7c.274.074.55.141.822.224.7.213,1.388.453,2.092.642a1.745,1.745,0,0,1,1.014.687,23.283,23.283,0,0,0,10.133,7.765c3.852,1.581,7.772,3,11.644,4.533,3.349,1.328,6.674,2.716,10,4.1a3.425,3.425,0,0,1,.9.606q4.686,4.072,9.356,8.163a5.314,5.314,0,0,1,.989,1.053c-1.179-.85-2.355-1.705-3.538-2.549-1.214-.866-2.435-1.722-3.689-2.538l3.045,2.762-.07.118c-.882-.529-1.774-1.043-2.644-1.591s-1.74-1.145-2.68-1.617l8.845,7.009-8.835-4.049-.041.073,4.572,2.827-.075.16-5.067-1.425-.03.08,1.444.632-.025.12L580.757,192l-.036.134,12.821,5.038-.026.087c-.189-.037-.378-.073-.567-.112-2.647-.54-5.281-1.154-7.943-1.6a35.563,35.563,0,0,1-8.381-2.529c-3.482-1.524-6.975-3.019-10.461-4.532-.59-.256-1.167-.54-1.794-.745a4.808,4.808,0,0,0,.418.328c2.8,1.729,5.555,3.557,8.43,5.16a47.673,47.673,0,0,0,18.81,5.881c1.485.144,2.971.294,4.45.484a15.921,15.921,0,0,1,7.892,3.4c1.4,1.1,2.848,2.126,4.179,3.295,1.116.981,2.1,2.113,3.127,3.193a19.486,19.486,0,0,1,1.5,1.781,61.352,61.352,0,0,0-13.2-6.711c1.047.565,2.115,1.1,3.135,1.7,1.208.721,2.4,1.473,3.554,2.281,1.775,1.245,3.512,2.546,5.258,3.834.2.15.542.227.466.6-1.119-.756-2.194-1.57-3.347-2.253a49.3,49.3,0,0,0-11.361-4.923,4.15,4.15,0,0,0-.993-.165,73.678,73.678,0,0,1,12.388,6.9c-4.2-1.83-8.479-3.4-12.974-4.912,2.824,1.386,5.5,2.669,8.144,4.005s5.35,2.627,7.907,4.178a82.254,82.254,0,0,0-20.088-6.382,100.019,100.019,0,0,1,11.447,4.558,2.661,2.661,0,0,1-.421-.023,124.1,124.1,0,0,1-20.5-5.912c-3.887-1.571-7.722-3.274-11.572-4.937-2.894-1.25-5.776-2.528-8.661-3.8a14.213,14.213,0,0,0-2.061-.809c.256.17.513.337.768.509a107.639,107.639,0,0,0,36.41,15.457c3.7.859,7.424,1.627,11.124,2.491a32.511,32.511,0,0,1,6.152,2.074,33.583,33.583,0,0,1,6.512,4.057c1.223.945,2.358,2,3.527,3.018a2.3,2.3,0,0,1,.383.445q2.417,3.564,4.821,7.137a1.368,1.368,0,0,1,.239.712c-.316-.266-.626-.541-.951-.795a12.154,12.154,0,0,0-3.571-1.885,11.314,11.314,0,0,1-3.411-1.636l.51.473a.6.6,0,0,1-.045.112c-.015.021-.043.052-.059.048-3.444-.835-6.911-1.589-10.326-2.53a139.173,139.173,0,0,1-14.161-4.484,8.2,8.2,0,0,0-1.52-.52c.8.443,1.592.908,2.407,1.325a68.4,68.4,0,0,0,17.952,6.544,14.778,14.778,0,0,1,5.419,2.254,43.306,43.306,0,0,1,7.513,5.991c.213.225.414.461.611.7a1.929,1.929,0,0,1,.149.381c-.774-.473-1.44-.853-2.078-1.275-2.209-1.46-4.4-2.944-6.615-4.4-.528-.346-1.114-.6-1.752-.947l4,2.991-.075.15c-1.667-.589-3.227-1.46-4.922-1.968l1.729,1.143-.014.109-2.264-.5,4.995,2.87-.076.186-5.661-1.678-.078.2c2.611,1.332,5.322,2.464,8.024,3.862a1.787,1.787,0,0,1-.269.03,1.509,1.509,0,0,1-.249-.044c-1.879-.487-3.745-1.029-5.639-1.447a33.189,33.189,0,0,1-6.022-2.184c-5.4-2.35-10.663-4.98-15.881-7.7-1.971-1.027-3.878-2.178-5.929-3.337.463.371.816.679,1.2.952a119.787,119.787,0,0,0,12.25,7.966,88.287,88.287,0,0,0,13.341,5.922c2.9,1.014,5.81,1.97,8.726,2.925a6.7,6.7,0,0,1,2.135,1.158,36.556,36.556,0,0,1,7.8,8.815,4.665,4.665,0,0,1,.515,1.062,41.835,41.835,0,0,0-8.607-7.615,48.024,48.024,0,0,0-10.25-5.1,52.476,52.476,0,0,1,8.975,6.2c-1.108-.661-2.2-1.344-3.328-1.976-1.147-.644-2.323-1.239-3.505-1.865-.04.141-.073.213-.061.223a72.963,72.963,0,0,1,8.123,7.117c3.046,3,6.11,5.989,9.1,9.053.531.545,1.044,1.106,1.545,1.677v-11.61c-.944-2.359-1.893-4.716-2.821-7.081a2.845,2.845,0,0,1-.133-1.312,30.769,30.769,0,0,1,1.453-6.584c.553-1.6,1.039-3.222,1.5-4.848v-6.511c-.165.61-.331,1.22-.479,1.833a10.485,10.485,0,0,1-.486,1.531q.062-4.163.124-8.324c-.881,4.419-1.313,8.891-1.973,13.348,0-5.54-1.179-10.906-2.16-16.3q.363,6.079.725,12.16l-.207.037-.519-2.353-.1.024.393,6.872-.183.04c-.975-4.6-2.488-9.023-3.886-13.416.8,4.374,1.607,8.807,2.435,13.344a166.914,166.914,0,0,0-7.607-16.1,183.724,183.724,0,0,0,8.779,21.034l-.189.09-8.828-16.264-.148.069q.809,2.063,1.619,4.125l-.094.064c-.13-.151-.273-.294-.389-.455-.43-.593-.817-1.219-1.282-1.781a7.646,7.646,0,0,1-1.43-2.933,31.292,31.292,0,0,1-1.037-6.923c-.014-.309-.039-.619-.031-.928.184-6.628-.376-13.228-.705-19.838-.2-4.077-.318-8.165-.294-12.247.049-8.214-2.06-15.935-5.117-23.457-.583-1.433-1.252-2.83-1.881-4.244.043.274.065.553.131.821q1.969,7.911,3.946,15.82a22.8,22.8,0,0,1,.434,5.53l-1.455-5.175-.143.036,1.857,11.767-.163.041a75.868,75.868,0,0,0-5.172-14.9q1.892,6.761,3.782,13.521l-.154.071c-.385-.686-.658-1.433-1.008-2.138s-.695-1.415-1.053-2.117c-.37-.727-.745-1.453-1.136-2.17-.377-.691-.776-1.371-1.169-2.054q-.612-1.062-1.229-2.118c-.4-.681-.8-1.358-1.2-2.039-.412-.705-.819-1.412-1.23-2.118a19.3,19.3,0,0,0-1.267-1.986q2.325,4.9,4.648,9.81l-.157.076a81.617,81.617,0,0,1-12.564-23.66c.046.257.083.517.138.772a56.481,56.481,0,0,0,3.653,11.842,59.14,59.14,0,0,0,6.02,9.856c1.664,2.3,3.354,4.591,4.934,6.952a31.332,31.332,0,0,1,4.947,11.753,15.731,15.731,0,0,1,.2,1.59c.058.7.05,1.409.129,2.107a56.486,56.486,0,0,1,.014,10.115,3.721,3.721,0,0,1-.089.4,4.306,4.306,0,0,1-.241-.581q-1.425-6.347-2.843-12.7a5.038,5.038,0,0,0-.19-.546l-.051.009a3.956,3.956,0,0,0,0,.576c.493,3.71.98,7.421,1.5,11.128.194,1.393.46,2.776.693,4.164a1.665,1.665,0,0,1-.007.835l-4.662-17.749c.859,5.356,1.655,10.728,2.642,16.085-.122-.355-.249-.708-.366-1.065q-1.874-5.694-3.746-11.387a1.6,1.6,0,0,0-.164-.285l-.059.014a4.4,4.4,0,0,0,.055.576,147.1,147.1,0,0,0,3.91,14.952.4.4,0,0,1-.048.383c-1.517-3.14-3.026-6.284-4.553-9.419s-3.059-6.239-4.59-9.358l-.171.075q2.916,7.26,5.833,14.52l-.044.046c-1.38-2.077-2.748-4.161-4.143-6.227-1.412-2.091-2.852-4.163-4.28-6.244l-.158.1q2.391,4.263,4.783,8.527l-.081.06-4.686-5.693-.116.086,6.161,9.136a4.9,4.9,0,0,1-.527-.4c-2.752-2.9-5.671-5.631-8.648-8.3a2.343,2.343,0,0,1-.835-1.327c-.193-1.051-.41-2.1-.559-3.157-.118-.835-.18-1.681-.214-2.525a53.234,53.234,0,0,0-3.15-15.423,95.019,95.019,0,0,0-4.64-10.593.335.335,0,0,0-.288-.191q.123.378.245.756c1.644,5.151,3.321,10.291,4.92,15.456a53.467,53.467,0,0,1,1.832,9.7.388.388,0,0,1-.088.318l-2.691-10.919a85.476,85.476,0,0,0,1.2,9.966,72.832,72.832,0,0,0-5.041-8.437c1.371,3.515,2.8,7.006,4.467,10.4l-7.253-8.928-.131.1,3.336,5.332-.082.09a1.325,1.325,0,0,1-.273-.185c-1.537-1.719-3.057-3.455-4.612-5.158a3.11,3.11,0,0,1-.773-1.548c-1.188-5.822-2.428-11.634-3.59-17.462a32.32,32.32,0,0,0-4.765-11.2,6.891,6.891,0,0,0-.506-.632,3.652,3.652,0,0,1,.39-.6c.555-.6,1.136-1.17,1.7-1.764a6.048,6.048,0,0,0,1.472-2.81,2.479,2.479,0,0,1,.115-.308,1.119,1.119,0,0,1,1.212.384,118.979,118.979,0,0,1,10.287,10.823c1.417,1.712,2.865,3.4,4.328,5.074a11.548,11.548,0,0,0,1.288,1.1c-.049-.186-.09-.34-.184-.693l.954,1.068.087-.059c-.093-.178-.18-.36-.279-.535a88.741,88.741,0,0,0-7.4-10.99c-.17-.218-.488-.432-.157-.853,2.609,2.943,4.35,6.474,6.814,9.482-1.673-3.671-3.218-7.428-6.792-9.96.192-.669.413-1.436.642-2.234a3.36,3.36,0,0,1,1.915.606c1.054.647,2.065,1.366,3.092,2.056a2.449,2.449,0,0,1,.27.2c1.02.906,1.939.437,2.049-.8a11.24,11.24,0,0,1,.425-1.749c1.506.918,3,1.748,4.411,2.707a22.223,22.223,0,0,1,5.058,5.169c.17.225.328.46.516.668a.8.8,0,0,0,1.453-.245c.093-.205.152-.424.232-.634a12.272,12.272,0,0,1,2.083-3.457,1.476,1.476,0,0,1,.408-.247c.04-.5.388-.779.763-1.132,1.161,1.477,2.81,2.262,4.281,3.283a9.276,9.276,0,0,1,3.631,4.64,1.135,1.135,0,0,1-.011,1.035.668.668,0,0,0,.178.969c.333.218.7.128,1.015-.288.24-.313.445-.651.669-.976a5.425,5.425,0,0,1,2.426-2.028c.467-.193.92-.418,1.37-.624.061.052.125.078.14.121a7.74,7.74,0,0,0,3.032,3.742c1.136.829,2.287,1.647,3.342,2.573a19.524,19.524,0,0,1,3.788,4.937,3.06,3.06,0,0,0,.5.774.773.773,0,0,0,.081.045v-3.258c-.014.03-.031.056-.044.087-.026.062-.1.1-.191.189-.178-.294-.338-.555-.494-.817a13.164,13.164,0,0,0-2.749-3.4c-1.011-.85-2.069-1.648-3.144-2.417a7.314,7.314,0,0,1-2.628-3.015,5.266,5.266,0,0,0-.442-.816c-.341-.51-.7-.637-1.224-.337-1.639.929-3.594,1.367-4.691,3.114-.112-.124-.17-.159-.181-.205a9.12,9.12,0,0,0-4.141-5.544c-.724-.487-1.426-1.006-2.137-1.514a4.091,4.091,0,0,1-1.412-1.641c-.319-.694-.88-.759-1.412-.214-.313.322-.573.695-.874,1.029a20.61,20.61,0,0,0-2.933,4.016c-.076.141-.176.27-.3.458-.207-.257-.384-.469-.553-.688a21.092,21.092,0,0,0-7.113-6.241,2.926,2.926,0,0,1-1.726-1.956.806.806,0,0,0-.782-.663.842.842,0,0,0-.845.584c-.353.857-.689,1.721-1.029,2.583-.077.195-.143.393-.214.591-.946-.664-1.824-1.319-2.742-1.912a6.859,6.859,0,0,0-2.9-1.1,1.543,1.543,0,0,0-1.9,1.243c-.081.269-.129.548-.213.816-.112.361-.244.716-.378,1.1l-1.136-.646c.1.351.166.584.284,1-.466-.369-.793-.591-1.076-.86-.9-.852-1.77-1.731-2.671-2.58a25.8,25.8,0,0,0-2.135-1.906,2.823,2.823,0,0,0-2.505-.38.9.9,0,0,0-.776.871,4.321,4.321,0,0,1-1.375,2.822c-.9.92-1.847,1.8-2.779,2.707a.653.653,0,0,1-.136-.093c-.165-.192-.324-.389-.487-.583a11.285,11.285,0,0,0-4.844-3.412,20.941,20.941,0,0,0-4.523-1.011,6.125,6.125,0,0,1-4-1.959,1.782,1.782,0,0,0-.178-.181c-.561-.484-1.04-.448-1.37.2a8.72,8.72,0,0,0-.7,1.888c-.229.956-.351,1.937-.531,2.9-.052.282-.146.557-.23.868-.176-.1-.252-.131-.32-.178-1.5-1.042-2.957-2.162-4.516-3.11a24.582,24.582,0,0,0-9.7-3.5c-1.618-.207-3.244-.379-4.872-.479a8.2,8.2,0,0,1-3.845-1.129c-.409-.248-.833-.472-1.264-.681a2.751,2.751,0,0,0-.791-.277c-.642-.091-.977.341-.724.932a3.387,3.387,0,0,0,.465.7c.6.779,1.225,1.542,1.816,2.329a27.186,27.186,0,0,1,3.268,6.182,32.874,32.874,0,0,0,3.374,6.224,40.9,40.9,0,0,0,4.5,5.895c.045.045.041.138.046.156a11.263,11.263,0,0,0-1.754.211c-.791.219-.955.869-.437,1.5a7.327,7.327,0,0,0,.713.719,6.06,6.06,0,0,1,2.187,4.583,8.4,8.4,0,0,0,.1,1.009,5.093,5.093,0,0,0,1.287,2.883c.335.369.671.736,1.012,1.11-1.108.144-2.181.288-3.256.421a.815.815,0,0,0-.764.562.778.778,0,0,0,.276.91,6.078,6.078,0,0,1,2.071,3.943c.148.688.278,1.38.43,2.068a7.045,7.045,0,0,0,2.29,3.948c.354.305.713.607,1.161.988-.333.076-.564.131-.8.183a10.644,10.644,0,0,0-1.316.3.945.945,0,0,0-.48,1.555,2.632,2.632,0,0,0,.325.388,27.855,27.855,0,0,1,5.474,7.658,9.015,9.015,0,0,0,3.042,3.553,3.954,3.954,0,0,1,.432.418l-2.923-.389.429.459-1.559-.044c-.032.069-.087.191-.159.351l-.643-.269c.125.266.341.515.337.761a1.668,1.668,0,0,0,.7,1.284,16.073,16.073,0,0,1,2.8,3.148,34.741,34.741,0,0,0,7.633,8.4,28.807,28.807,0,0,1,7.315,8.967,2.8,2.8,0,0,1,.422,2.084,4.568,4.568,0,0,0-.04,1.094c0,.591.006,1.182,0,1.773a1,1,0,0,1-.492.915c-.452.281-.877.607-1.3.925-.31.231-.606.481-.853.677.191.234.338.4.473.581a6.262,6.262,0,0,0,.6.8c.367.347.782.645,1.181.956a26.471,26.471,0,0,0,8.247,4.181,56.762,56.762,0,0,0,9.162,2.594c-.278.523-.511,1.038-.812,1.51-.5.781-1.005,1.56-1.572,2.291a3.054,3.054,0,0,1-2.692,1.3.929.929,0,0,0-.971,1.356,3.318,3.318,0,0,0,.76,1.293,26.778,26.778,0,0,0,3.053,2.647,69.481,69.481,0,0,0,13.819,7.224c2.4.975,4.8,1.929,7.19,2.936a9.361,9.361,0,0,1,2.536,1.6,1.006,1.006,0,0,1-.2.124,17.967,17.967,0,0,1-6.186.645.983.983,0,0,0-1.049.386.962.962,0,0,0,.149,1.176,14.539,14.539,0,0,0,1.5,1.705A25.152,25.152,0,0,0,613,272.138a24.112,24.112,0,0,0,10.249,1.718c1.379-.046,2.759-.042,4.138-.084a1.716,1.716,0,0,1,1.274.49,26.092,26.092,0,0,0,2.836,2.254,28.646,28.646,0,0,0,6.769,3.022c.547.183,1.1.354,1.649.53Zm-18.951-42.358.017-.085c.564.136,1.129.269,1.692.408.327.081.651.17.975.261,1.925.538,1.925.539,3.238,2.315Zm6.686,2.107a12.551,12.551,0,0,1,4.783,5.289ZM613.821,213.8l-.051.084-1.271-.842ZM590.894,187.97a7.866,7.866,0,0,1-2.7-2.64l.463-.07a2.205,2.205,0,0,1-.986-1.972Zm.8-34.025-1.109-1.192C591.356,152.909,591.517,153.469,591.7,153.945Zm-50.075.325a23.2,23.2,0,0,1-1.521-3.107,32.653,32.653,0,0,0-4.159-7.516.955.955,0,0,1-.079-.213,2.41,2.41,0,0,1,.471.132,8.931,8.931,0,0,0,3.505.836c1.933.167,3.869.346,5.788.632a22.856,22.856,0,0,1,7.725,2.851,26.387,26.387,0,0,1,4.607,2.974c.338.294.669.6.979.926.563.591,1.012.524,1.289-.262a16.2,16.2,0,0,0,.564-2.027c.166-.8.251-1.613.395-2.416.072-.4.2-.8.3-1.194.138.038.208.036.241.069a7.214,7.214,0,0,0,4.443,2.03c.836.115,1.671.245,2.5.4a12.141,12.141,0,0,1,5.661,2.687,8.073,8.073,0,0,1,2.079,1.95c.269.457.854.35,1.187-.136.194-.282.208-.744.717-.705h0a45.778,45.778,0,0,1,2.483,6.6c.5,1.612.9,3.255,1.344,4.886a.865.865,0,0,1-.005.5l-3.214-7.267-.148.051,2.061,6.932a55.743,55.743,0,0,0-6.906-7.587l6.635,9.568-.133.1c-.553-.626-1.063-1.3-1.666-1.871-1.753-1.667-3.493-3.355-5.332-4.924-2.592-2.209-5.27-4.319-7.912-6.469a.346.346,0,0,0-.273-.069c.208.241.413.483.624.721a97.789,97.789,0,0,0,9.471,9.263,29.663,29.663,0,0,1,7.982,10.556c.534,1.211,1.109,2.4,1.648,3.613a6.736,6.736,0,0,1,.375,1.118c.468,1.886.921,3.776,1.377,5.665a2.278,2.278,0,0,1,.022.324,4.562,4.562,0,0,1-1.764-.949q-5.925-5.285-11.849-10.57c-3.366-2.995-6.77-5.947-10.106-8.974-3.98-3.613-7.974-7.214-11.671-11.125-.034-.036-.1-.043-.273-.116.252.354.434.618.625.876a93.934,93.934,0,0,0,13.3,14.334c2.931,2.593,5.842,5.208,8.761,7.815a2.59,2.59,0,0,1,.2.232c-.386.116-.6-.143-.826-.3-1.1-.79-2.172-1.609-3.268-2.4-1.963-1.419-3.936-2.825-5.906-4.235a.492.492,0,0,0-.347-.1l4.306,3.807-.069.09-13.85-7.034-.091.166c3.313,2.189,6.541,4.51,10.037,6.435-1.161-.488-2.327-.962-3.48-1.467-1.184-.518-2.355-1.065-3.667-1.661l2.867,1.9.035.07-.267-.13-.03.195,8.338,4.75-.03.077q-1.757-.678-3.514-1.358a48.369,48.369,0,0,1-10.818-5.678c-.958-.689-1.873-1.442-2.774-2.206a2.438,2.438,0,0,1-.681-.94,4.346,4.346,0,0,0-1.145-1.649A43.285,43.285,0,0,1,541.624,154.27Z"/><path class="a" d="M609.1,266.157c.193.038.385.09.58.111,5.719.622,11.321,1.9,16.953,3.016,3.506.692,7.015,1.371,10.451,2.38.957.282,1.9.6,2.83.941v-1.786a61.862,61.862,0,0,0-7.795-2.425,91.013,91.013,0,0,0-21.529-2.352C610.093,266.038,609.6,266.117,609.1,266.157Z"/><path class="a" d="M633.628,190.073c-.815-1.569-1.588-3.16-2.439-4.741.051.222.088.449.155.666a104.536,104.536,0,0,0,4.627,12.244,67.831,67.831,0,0,1,3.761,9.859c.067.243.12.486.182.73V198.525c-.019-.072-.036-.143-.054-.215-.631-2.422-1.316-4.829-2.11-7.214.392,2.08.806,4.156,1.169,6.242s.671,4.165.9,6.286c-.057-.112-.125-.22-.17-.336A128.573,128.573,0,0,0,633.628,190.073Z"/><path class="a" d="M595.726,251.485a6.453,6.453,0,0,0,.582.315c7.564,2.994,15.139,5.957,22.824,8.63a143.412,143.412,0,0,1,14.692,6q3.109,1.484,6.09,3.2v-1.87a89.209,89.209,0,0,0-12.472-6.322,177.476,177.476,0,0,0-27.6-8.961c-1.313-.318-2.612-.691-3.918-1.037A.912.912,0,0,0,595.726,251.485Z"/></g></svg>