<svg xmlns="http://www.w3.org/2000/svg" width="126.354" height="112.458" viewBox="0 0 126.354 112.458"><defs><style>.a{fill:#3b1500;}</style></defs><g transform="translate(379.627 432.824) rotate(180)"><g transform="translate(253.273 320.366)"><path class="a" d="M345.651,339.9a14.881,14.881,0,0,1,1.211,1.632c1.08,1.942,2.156,3.892,3.12,5.892a6.071,6.071,0,0,1,.062,2.105,4.186,4.186,0,0,0,2.234,1.7,28.654,28.654,0,0,1,6.686,3.781,38.128,38.128,0,0,1,7.864,6.962c1.316,1.622,2.464,3.384,3.617,5.131.728,1.1,1.331,2.294,1.982,3.45.75,1.326.331,2.155-1.185,2.264-1.324.094-2.652.125-3.978.19-.378.019-.754.06-1.217.1.077.166.094.3.168.35,3.14,2.1,5.3,5.084,7.241,8.224,1.415,2.29,2.678,4.678,3.977,7.039.468.851.371,1.354-.479,1.825-1.116.617-2.312,1.09-3.476,1.621-.222.1-.452.182-.746.3,1.343,2.135,2.642,4.183,3.921,6.245.72,1.164,1.425,2.338,2.1,3.53a8.552,8.552,0,0,1,.7,1.651,2.027,2.027,0,0,1-1.094,2.791,24.277,24.277,0,0,1-7.8,2.849c-.286.049-.574.094-.957.157.3.883.6,1.671.823,2.48.489,1.755.271,2.693-1.274,3.648a23.113,23.113,0,0,1-9.879,3.339,9.459,9.459,0,0,1-1.562-.1c.66,2.986,1.3,5.9,1.951,8.813.037.167.094.33.147.493.153.479.207,1.016-.282,1.257a1.505,1.505,0,0,1-1.176-.01c-1.492-.743-2.986-1.5-4.4-2.375a30.827,30.827,0,0,0-7.974-3.477c-1.936-.543-3.874-1.086-5.793-1.688a15.3,15.3,0,0,1-6.031-3.361c-.037.479-.073.753-.077,1.027-.027,1.628-.026,3.255-.075,4.882a11.128,11.128,0,0,0,.827,4.769,13.942,13.942,0,0,1,.512,1.452c.183.613.448,1.284-.205,1.77-.731.542-1.288-.031-1.83-.419a10.423,10.423,0,0,1-1.283-1.07,21.167,21.167,0,0,0-8.464-4.929,40.638,40.638,0,0,1-10.721-5.166c-1.986-1.4-3.819-3.025-5.717-4.553a5.065,5.065,0,0,0-.935-.682c.315,2.634.732,5.211,2.5,7.336.246.3.512.576.756.875a.853.853,0,0,1,.059,1.173,2.225,2.225,0,0,1-1,.423,1.021,1.021,0,0,1-.494-.107c-2.49-.786-4.986-1.552-7.466-2.367a33.2,33.2,0,0,1-13.669-9.054,50.712,50.712,0,0,1-8.363-12.1,5.626,5.626,0,0,0-1.243-1.6,27.063,27.063,0,0,1-6.524-8.018,4.715,4.715,0,0,0-.825-.886,11.7,11.7,0,0,0-.433,4.335,5.8,5.8,0,0,1,.038,1.02.863.863,0,0,1-.81.858,2.721,2.721,0,0,1-1.127-.413c-.122-.062-.182-.282-.235-.442-1.492-4.52-4.148-8.427-6.534-12.482-1.714-2.91-3.289-5.9-4.9-8.871-.346-.637-.585-1.332-.884-1.994-2.63-5.806-2.219-11.481.72-17.051a33.8,33.8,0,0,1,7.006-9.28c.658-.605,1.216-1.321,1.848-1.956a10.9,10.9,0,0,1,4.708-2.773,4.46,4.46,0,0,0,2.078-1.2,4.565,4.565,0,0,1,.884-.6l.367.115-.316.79c.862-.491.712-1.087.6-1.762a4.161,4.161,0,0,0-2.376.76c-1.829,1.106-3.621,2.271-5.424,3.42-.387.246-.756.523-1.133.784l-.181-.2a60.781,60.781,0,0,1,4.43-4.382,14,14,0,0,1,3.629-1.849,2.913,2.913,0,0,1,2.578.1c.071-.255.071-.66.223-.728.817-.37.732-1.07.741-1.747.012-1.155.018-2.312.025-3.469a9.74,9.74,0,0,1,4.361-8.16,20.533,20.533,0,0,1,12.784-3.914,88.366,88.366,0,0,1,14.037,1.491c.575.1,1.177.033,1.764.081a12.147,12.147,0,0,1,2.285.271c1.685.474,3.313,1.183,5.016,1.555s3.5.327,5.2.686a32.438,32.438,0,0,1,8.772,3.565,55.637,55.637,0,0,1,9.1,6,4.009,4.009,0,0,0,.769.4Zm-62.716,17.314.444,1.433.654,1.964a10.377,10.377,0,0,0,.263,1.326,47.929,47.929,0,0,1,2.13,8.193,6.533,6.533,0,0,1,.022.734l-.185.042q-.965-1.92-1.929-3.841a13.251,13.251,0,0,0,0,2.031,3.221,3.221,0,0,0,2.108,3.183c2.2,1.058,4.382,2.141,6.584,3.19a27.285,27.285,0,0,0,10.205,2.821,16.589,16.589,0,0,0,5.235-.736c.011-.58.053-1.128.026-1.673a39.841,39.841,0,0,0-3.265-14.709c-1.1-2.415-2.229-4.816-3.44-7.173a23.372,23.372,0,0,0-5.054-6.43,3.853,3.853,0,0,0-1.265-.846c-1.363-.48-2.758-.872-4.141-1.3a15.142,15.142,0,0,0,2.062,1.507q1.057.725,2.052,1.539c.63.513,1.217,1.077,1.822,1.619a25.606,25.606,0,0,1-2.724-.924,6.125,6.125,0,0,0-2.585-.739c1.322,1.309,2.645,2.619,4.181,4.141l-5.851-3.1,3.789,5.314-.222.189-8.587-7.684a63.645,63.645,0,0,1,6.571,10.038l-7.905-8.779c2.653,4.55,5.53,8.962,7.17,14.052q-2.528-3.464-5.057-6.928a90.533,90.533,0,0,1,3.988,9.573,58.062,58.062,0,0,1-5.786-9.173c1.181,4.279,3.385,8.211,4.112,12.881-.26-.327-.368-.453-.467-.586a24.562,24.562,0,0,1-3.144-6.15c-.207-.55-.494-1.071-.743-1.6l-.653-1.964q-.224-.717-.445-1.433-.205-.719-.412-1.437c-.194-.994-.394-1.985-.58-2.98-.189-1.013-.364-2.03-.546-3.044a9.623,9.623,0,0,0,1.079,6.03Q282.687,356.5,282.935,357.213ZM294.027,417.3l.9,1,.146-.148-1.047-.856-4.374-3.426a2.2,2.2,0,0,0,.371.575c1.206,1,2.43,1.99,3.659,2.966C293.734,417.462,293.909,417.346,294.027,417.3Zm37.386-9.114a13.358,13.358,0,0,0,.582,1.792,1.658,1.658,0,0,0,.8.747,15.644,15.644,0,0,0,7.043,1.576c1.362-.079,2.727-.109,4.089-.161l.764-.047,8.289-.559a19.706,19.706,0,0,0-2.817-7.845c-1.6-2.42-3.389-4.719-5.129-7.043a7.5,7.5,0,0,0-5.591-3.229,12.829,12.829,0,0,1-1.493-.286l-.07.12.858.6-4.109-.289-.073.24,3.629,2.27c-4.793-1.04-9.255-2.645-13.923-3.467,4.7,1.625,9.348,3.325,13.387,6.293l-.109.283-9.358-3.09-.122.227,3.524,3.153-.082.085-1.763-.857c.84,1.268,1.947,1.944,2.49,3.054-.927-.5-1.781-1.057-2.639-1.613-.812-.523-1.628-1.039-2.441-1.559,3.743,4.153,4.824,5.593,5.331,7.32-1.076-.672-2.19-1.37-3.555-2.222.908,1.666,1.692,3.109,2.478,4.552Zm22.829-5.206-.661.412.205.832-.194.092-3.281-3.97-.057.055,2.969,5.287c6.089.634,11.215-1.444,15.533-5.986-2.5-3.577-4.7-7.246-7.714-10.423-.854.24-1.708.5-2.574.716s-1.765.393-2.646.587l.026.174,4.363.623a23.85,23.85,0,0,1-6.04,1.335l2.736.657a17.886,17.886,0,0,1-9.853-.58,43.348,43.348,0,0,1,7.413,6.582l-6.638-3.938c1.342,1.2,2.556,2.219,3.691,3.32s2.168,2.266,3.247,3.4l-.133.123-2.3-1.585a7.088,7.088,0,0,0,1.135,2.025c.151.19.515.211.782.309Zm-43.531-40.231-4.92-4.972-.118.079c.6,1.439,1.206,2.877,1.773,4.234.609.274,1.132.535,1.677.746s1.117.528,1.587-.145c.4.587,1,.4,1.53.352a72.292,72.292,0,0,0,11.476-2.137,27.4,27.4,0,0,1,10.43-.783,30.711,30.711,0,0,1,6.093,1.513c.4.141.821.24,1.232.359a4.242,4.242,0,0,0-1.459-1.9c-.757-.4-.867-1.149-1.336-1.684a51.9,51.9,0,0,1-3.737-4.565,65.706,65.706,0,0,0-12.427-12.913,11.271,11.271,0,0,0-7.585-3c-1.2.026-2.4-.151-3.593-.133-2.034.03-4.066.141-6.1.218l0,.287a41.008,41.008,0,0,1,10.357.982l-.01.274-10.7.775,6.79,2.227-.062.281c-2.866-.178-5.733-.355-8.9-.549,1.788.912,3.5,1.355,4.838,2.5a71.721,71.721,0,0,1,18.4,11.337c.2.161.4.319.593.493s.333.345.5.52a180.165,180.165,0,0,0-16-8.872l-.183.24,2.745,2.456-.136.159-1.3-.642-.116.144,1.639,1.7-.138.134-4.976-2.712-.085.16,2.8,2.508c-.609-.293-.949-.449-1.283-.617-.917-.46-1.83-.927-2.749-1.385-.037-.019-.105.023-.193.045l.836.928c-1.462-.689-2.706-1.274-3.949-1.862a36.138,36.138,0,0,0,3.075,3.055c1.024.972,2.029,1.966,2.979,3.008a28.269,28.269,0,0,1,2.534,3.34l-.211.19-6.88-5.261c.327.471.55.827.806,1.158A30.131,30.131,0,0,1,310.711,362.754Zm-42.917,27.334-.038,0c.1-.071.251-.125.281-.218a32.1,32.1,0,0,1,3.518-6.972,40.514,40.514,0,0,0,5.437-14.449c.485-2.739.9-5.492,1.352-8.237a10.965,10.965,0,0,0-.107-4.213c-.606-2.715-1.244-5.424-1.881-8.133a6.585,6.585,0,0,0-.33-.861,65.653,65.653,0,0,1,.8,14.553q-.526-2.517-1.05-5.035l-.249.027q-.006,2.7-.01,5.409l-.218.021-2.287-13.226c-.56,3.7-1.11,7.341-1.659,10.979l-.282-.016c-.123-2.415-.363-4.831-.335-7.244.027-2.374.326-4.746.507-7.118-1.169,4.389-2.2,8.812-3.671,13.107l-.27-.042c.308-3.526.615-7.054.95-10.9-2.449,5.092-4.771,9.923-7.094,14.754a49.692,49.692,0,0,1,5.7-15.907,15.127,15.127,0,0,0-2.876,2.694c-1.8,2.441-3.565,4.925-5.153,7.51a20.768,20.768,0,0,0-2.531,5.14,14.048,14.048,0,0,0,.5,9.322,74.069,74.069,0,0,0,3.639,7.781c2.17,3.931,4.545,7.749,6.836,11.612a1.284,1.284,0,0,0,.264.242Zm37.341,22.521-.12.209a3.785,3.785,0,0,0,.55.671c2.381,1.817,4.713,3.7,7.174,5.4a46.087,46.087,0,0,0,11.837,5.493,21.872,21.872,0,0,1,5.578,2.567c.861.589,1.674,1.247,2.757,2.06-.819-2.7-.472-5.18-.465-7.643,0-.428.015-.857-.011-1.284-.391-6.308-2.214-12.079-6.354-16.991-.6-.717-1.1-1.524-1.648-2.289a4.389,4.389,0,0,0-.527-.72c-1.525-1.385-3.065-2.754-4.6-4.127,1.452,1.424,1.967,3.422,3.237,5.218l-6.427-4.5-.1.1,1.7,2.067-1.2-.639,4.1,5.3c-1.244-.465-2.093-1.524-3.378-1.906l1.589,2.383L312.93,398.7l.453,1c-.5-.445-1.06-.951-1.626-1.455a5.544,5.544,0,0,0-1.78-1.265l2.352,3.905-.162.148-1.963-1.756-.122.131,2.517,4.823-.182.11c-2.044-2.682-4.089-5.363-6.174-8.1l4.088,10.39-.159.066-3.435-5.351-.179.079,2.72,9.993-2.092-2.078c.251.623.387.973.53,1.321.249.6.528,1.243.055,1.822-.517.635-1.236.433-1.911.281Zm32.212-28.425-.189.079c.255,1.157.485,2.32.782,3.467a1.146,1.146,0,0,0,.569.627,9.354,9.354,0,0,0,4.743,1.409,19.463,19.463,0,0,0,4.683-.626c4.174-1.374,8.276-2.962,12.49-4.5-.315-.586-.578-1.118-.878-1.629-2.276-3.874-4.547-7.751-6.849-11.61a15.031,15.031,0,0,0-1.886-2.742c-1.741-1.823-3.6-3.537-5.417-5.285a5.687,5.687,0,0,0-.706-.5c-.315,1.788-.8,2.086-2.475,1.593-.809-.238-1.614-.494-2.42-.742l-.062.142,4.829,3.346-.127.235-4.2-1.1.683,1.185-4.027-1.3a35.625,35.625,0,0,0,3.1,2.8A14.292,14.292,0,0,1,342.732,372l-9.143-4.806c3.424,3.016,7.162,5.692,9.68,9.66l-8.015-6c3.3,3.224,6.684,6.382,8.9,10.557l-5.359-4.487a22.423,22.423,0,0,1,2.316,7.121c-1.175-1.7-2.252-3.435-3.321-5.179a34.961,34.961,0,0,0-3.451-5.11c2.294,3.84,4.417,7.714,3.967,12.649C337.926,385.529,337.637,384.856,337.347,384.184Zm-21.414-1.673-.182.231q-1.238-.793-2.475-1.587c-.821-.527-1.263-1.524-2.3-1.832.824,1.232,2.3,2.022,2.464,3.607l-3.96-.524c.259.556.438.938.623,1.335l-.843-.082.452,1.283-1.752-1.01c.435,1.109.824,2.1,1.243,3.17l-.749-.122c.129.424.235.778.379,1.254l-1.276-.906c.127.545.214.92.333,1.432l-1.342-1-.274.658c-1.143-.337-1.465-1.519-2.279-2.2a1.746,1.746,0,0,0,.279,2.183,3.636,3.636,0,0,0,2.36,1.147c1.109.09,2.212.287,3.321.318,2.782.074,5.566.141,8.348.086a20.082,20.082,0,0,0,4.188-.531,48.557,48.557,0,0,1,8.49-1.324c.3-.018.6-.083.9-.126a1.7,1.7,0,0,0-.91-.216c-2.909.07-5.818.153-8.727.225-2.309.056-4.62.155-6.929.127a28.585,28.585,0,0,1-3.37-.424.5.5,0,0,1,.46-.275q5.131-.144,10.264-.283c2.523-.07,5.047-.211,7.57-.186a13.176,13.176,0,0,1,5.625,1.2c.077-.159.212-.309.205-.454a1.8,1.8,0,0,0-.189-.864c-.1-.159-.549-.105-.638-.263a7.171,7.171,0,0,1-1.09-3.993l.739,1.1c-.9-3.578-1.4-7.244-2.917-10.6a20.146,20.146,0,0,0-2.093-3.211,3.146,3.146,0,0,0-2.031-1.044l-.159.233q1.037.926,2.071,1.853l-.111.116-3.756-1.574-.1.215.877.664-.06.094-3.32-1.515-.042.122c1.166,1.044,2.333,2.089,3.608,3.229l-3.216-1.335-.14.231,2.175,1.947-.107.12q-2.7-1.415-5.395-2.828l-.09.119,5.113,5.317-.177.193-4.044-2.637-.107.134,1.144,1.277a45.11,45.11,0,0,1-8.244-5.593q1.862,2.618,3.728,5.235l-.12.085-1.592-1.279-.12.1,1.5,2.249-.146.119-4.808-4.3A17.428,17.428,0,0,0,314,374.339c.684.865.68,2.019,1.455,2.856a25.626,25.626,0,0,1,1.986,2.762l-.119.114L311.7,375.8c.36,1.214,1.376,1.582,1.927,2.331.59.8,1.192,1.592,1.882,2.512l-1-.159C315.023,381.215,315.479,381.863,315.933,382.512Zm-27.362,5.363-.26.094q-.468-1.267-.935-2.535l-.183.053.433,3.478-.242.045-1.524-6.344a.56.56,0,0,0-.268.444c-.208,2.257-.371,4.521-.639,6.772a2.349,2.349,0,0,0,.623,2.094c.776.8,1.5,1.654,2.308,2.412q6.513,6.1,13.062,12.167c.313.29.643.564.965.847.279.248.557.5.836.749A66.947,66.947,0,0,1,284.718,392.5a12.965,12.965,0,0,0,.071,3.28.986.986,0,0,0,.241.446c1.481,1.711,2.73,3.649,4.606,4.977,2.163,1.532,4.333,3.062,6.586,4.452,2.765,1.7,5.617,3.266,8.441,4.875a10.919,10.919,0,0,0,1.272.523,1.972,1.972,0,0,0-.011-.438,4.491,4.491,0,0,0-.264-.585,32.37,32.37,0,0,1-3.719-15.058q-.035-1.154-.1-2.308c0-.042-.111-.079-.181-.126-.108.175-.216.348-.424.686a10.417,10.417,0,0,1-.6-1.455q-1.536-6.495-3.018-13c-.162-.712-.507-.99-1.285-.814.285.69.574,1.348.83,2.019.275.72.543,1.443.769,2.178a20.083,20.083,0,0,1,.538,2.114c.146.754.241,1.521.318,2.286.067.667.078,1.339.123,2.171-1-2.275-1.851-4.365-2.827-6.4-.834-1.732-1.812-3.394-2.717-5.091a1.512,1.512,0,0,0-1.7-.9,57.019,57.019,0,0,1,6.22,12.186q-3.127-4.137-6.257-8.275a31.614,31.614,0,0,1,2.816,6.739l-4.261-6.327-.137.059q.965,2.671,1.929,5.343l-.179.067-1.039-1.634-.164.09.72,2.311a7.527,7.527,0,0,1-1.264-1.8c-.356-.634-.7-1.274-1.076-1.9a8.56,8.56,0,0,0-1.169-1.973Zm46.678-37.381-.256.231c1.389,1.723,2.817,3.419,4.151,5.187a2.357,2.357,0,0,0,1.828.917,25.655,25.655,0,0,1,4.79.773c2.308.739,4.519,1.782,6.771,2.7l.906.363c-.381-1.159-.661-2.138-1.021-3.088-.545-1.439-1.128-2.864-1.729-4.279a6.285,6.285,0,0,0-.768-1.318,33.643,33.643,0,0,0-5.4-5.462,4.283,4.283,0,0,0-.988-.568q-3.858-1.729-7.727-3.433c-.275-.122-.571-.2-.857-.3l-.067.155,5.752,4.189-.049.062-9.389-4.219-.077.146,7,6.641-.134.174-3.908-2.505c1,1.506,2.118,2.847,3.211,4.211a16.783,16.783,0,0,1,2.257,4.754Zm-49.545-20.375.16.175,2.413-1.187c-.385.487-.638.806-.9,1.14,1.283.632,2.241-.42,3.385-.512-.1.231-.159.379-.248.59a2.447,2.447,0,0,1,.4-.111,1.488,1.488,0,0,1,.337.053c-2.277,3.752-5.93,5.582-9.652,7.33,1.836-.2,3.639-.483,5.451-.682a3.382,3.382,0,0,0,2.164-.954A13.667,13.667,0,0,1,291,334.5c2.725-1.914,5.485-3.782,8.2-5.708a20.854,20.854,0,0,1,8.623-3.76,6.863,6.863,0,0,0,.676-.216,8.242,8.242,0,0,0-.866-.312,74.329,74.329,0,0,0-16.167-1.778,33.96,33.96,0,0,0-5.436.8,1.891,1.891,0,0,0-1.1.586c-.981,1.272-1.886,2.6-2.923,4.053l4.579-3.124.118.13-1.888,3.054,3.7-2.1Zm15.986,6.052.075.281c.721-.081,1.443-.159,2.164-.244a46.741,46.741,0,0,1,9.358-.349,35.991,35.991,0,0,0,8.312-.261c.064-.01.119-.089.178-.135l-.234-.442a25.247,25.247,0,0,1,7.689.956,7.461,7.461,0,0,0-.609-.865A51.807,51.807,0,0,0,320.7,328.4a7.986,7.986,0,0,0-3.183-1.265,24.353,24.353,0,0,1-2.86-.724,2.561,2.561,0,0,0-2.268.33l1.826.183c-.976.364-1.645.642-2.333.867a59.405,59.405,0,0,0-5.749,2.66c-1.307.587-2.61,1.185-3.916,1.778a32.125,32.125,0,0,1,6.264.277l-2.808.9.059.2,1.973.178.01.155-4,.823.038.209,1.882.109-.019.126Zm61.1,44.238c.882,1.3.966,2.95,1.979,4.146a11.385,11.385,0,0,1,.819,1.32c-1.432-.85-2.164-2.293-3.73-2.591a12.8,12.8,0,0,1,.687,1.968c.17.96-.768,1.031-1.395,1.295,1.4,1.67,2.7,3.24,4.026,4.8a.822.822,0,0,0,.535.292c1.457,0,2.983.444,4.289-.637a.868.868,0,0,1,.6-.114c1.927.259,3.357-.865,5.035-1.6-.747-1.407-1.383-2.664-2.071-3.892a40.69,40.69,0,0,0-5.663-8.063,4.283,4.283,0,0,0-2.957-1.569l2.537,1.817-.055.105-4.591-1.378-.1.172,1.758,1.767-.094.077-1.795-.819-.167.252c.757.676,1.541,1.325,2.261,2.038.76.751,1.462,1.561,2.181,2.352.653.719,1.294,1.447,1.94,2.171l-.162.156Zm-81.12,3.088-.333-.086c-.576,1.838-1.153,3.676-1.771,5.647-.108-.444-.188-.768-.294-1.2l-.379.679c-.09-.364-.164-.665-.259-1.046l-.549.8c-.122-3.109.464-6.061.078-9.038-.672,2.068-.962,4.222-1.925,6.2a19.336,19.336,0,0,0-.992,3.576c-.122.465-.231.935-.348,1.4l-.193-.052q.066-1.133.129-2.266a26.837,26.837,0,0,0-1.228,3.121,1.2,1.2,0,0,0,.287,1.29c.528.616,1.031,1.258,1.593,1.843,1.984,2.066,3.99,4.109,5.982,6.168a6.689,6.689,0,0,1,.511.684l-.2.159-4.018-3.1a27.866,27.866,0,0,0,6.066,5.006c-.066-.489-.085-.782-.145-1.066a57.635,57.635,0,0,1-1.038-11.737c-.005-1.027,0-2.053-.037-3.079-.007-.208-.1-.545-.242-.6-.716-.263-.69-.8-.657-1.4C281.741,384.767,281.685,384.131,281.668,383.5Zm77.258-17.121-.068.119q.864.554,1.728,1.112l-.073.131-4.871-1.469.427.741-4.114-1.9-.089.185,1.073.865-.057.094-2.446-1.016a3.358,3.358,0,0,0,.728,1,12.425,12.425,0,0,0,2.235,2.412,18.122,18.122,0,0,0,3.274,1.086,24.5,24.5,0,0,0,10.356,1.417c.813-.052,1.626-.066,2.439-.11.323-.018.646-.071.966-.108-2.783-6.145-7.154-10.821-12.693-14.857,1.451,1.693,3.076,2.891,3.9,4.783l-1.327-.773c.152.316.22.46.37.769l-.546-.282-.049.241.736,1.1-.082.089-3.782-2.6c1.452,1.472,2.962,2.886,3.577,4.95l-.836-.063,2.574,3.377Zm-4.37,50.344c-.01.957-.4,1.025-.96.739-.152-.078-.313-.137-.465-.214q-2.969-1.515-5.936-3.036c-.639-.33-.635-.338-1.4-.11a21.952,21.952,0,0,1,5.773,3.751l-1.139-.111c.735.658,1.244,1.114,1.754,1.569l-.092.114-3.6-1.343-.085.185,2.82,2.189a5.144,5.144,0,0,1-1.467-.368,2.336,2.336,0,0,0-.58-.141c-.3.775-.775.2-1.055.071-1.979-.906-3.948-1.84-5.889-2.823-1.18-.6-2.305-1.3-3.455-1.958l-.031.081,3.528,3.157-1.986-.754c.226.338.367.553.561.846-3.315-.815-5.541-2.968-7.612-5.38a5.705,5.705,0,0,0,.582,1.569c.565.957,1.3,1.826,1.763,2.826a4.453,4.453,0,0,0,3.18,2.516c2.359.616,4.7,1.288,7.064,1.886a31.02,31.02,0,0,1,9.384,4.034c.732.476,1.515.876,2.543,1.465C356.8,423.742,356.569,420.122,354.557,416.72Zm11.637-24.071c.148.255.263.48.4.689,1.243,1.843,2.5,3.673,3.73,5.526.768,1.161.665,1.47-.4,2.322-1.188.949-2.33,1.958-3.395,2.858.949,1.622,1.823,3.116,2.746,4.693a43.867,43.867,0,0,0,8.631-3.856,14.819,14.819,0,0,0-.869-2.022c-1.89-3.05-3.826-6.072-5.749-9.1a1.5,1.5,0,0,0-.387-.5,2.509,2.509,0,0,0-1-.426C368.718,392.73,367.527,392.707,366.194,392.65Zm-75.755,19.358c.067,1.31.958,1.869,1.818,2.412,1.842,1.164,3.725,2.261,5.576,3.413,2.178,1.354,4.333,2.743,6.509,4.1.47.293.931.68,1.425.626-.491-1.963-.962-3.863-1.443-5.76-.209-.828-.412-1.658-.66-2.474a2,2,0,0,0-1.648-1.5c.435.732.821,1.384,1.207,2.034l-.138.14-2.827-2.135-.085.119.88,1.647-.151.107-2.323-2.39-.112.1q.267.7.535,1.409l-.222.134-4.72-4.96c.664,1.421,1.265,2.708,1.867,3.993l-.212.171L293.6,411.29l-.136.152,2.181,3.166-.108.086-5.361-5.347-.168.112c.553,1.121,1.106,2.242,1.725,3.495Zm66.322,2.316-.17.12c.415.773.85,1.537,1.235,2.324a1.319,1.319,0,0,0,1.578.778,7.007,7.007,0,0,0,1.132-.215c2.175-.778,4.348-1.562,6.5-2.386a5.323,5.323,0,0,0,1.174-.765,1.116,1.116,0,0,0,.437-1.352,31.067,31.067,0,0,0-2.612-5.977l-1.313.523c.405.361.779.7,1.291,1.155l-1.459.969.591.758c-1.388-.2-2.59-.378-3.942-.574l.971.984-.066.148-4.709-1.747c1.422,1.417,3.109,2.159,3.926,3.752a4.885,4.885,0,0,1-1.776.506,7.048,7.048,0,0,1-1.847-.849,2.092,2.092,0,0,0-.523-.077l1.339,3.218-.183.116ZM342.8,342.14l-.118.148-7.007-5.832-.137.16,1.633,1.613-.049.085c-.3-.155-.606-.308-1.05-.532a12.018,12.018,0,0,0,3.24,3.229,55.559,55.559,0,0,1,7.916,5.685,4.023,4.023,0,0,0,.543.346l.192-.178c-.788-1.309-1.5-2.673-2.383-3.916-2.368-3.332-5.619-5.729-8.868-8.111-.734-.538-1.521-1-2.283-1.5l-.023.059,7,6.259c-.222-.025-.363-.04-.682-.077Zm-41.041,42.509c-.03-1.018-.036-2.04-.1-3.058a5.268,5.268,0,0,0-.278-1.246c-.485-1.525-1.127-1.907-2.84-1.707l1.222,3.5.136-.045-.222-2.357.294-.06C301.376,381.03,301.009,383.01,301.756,384.648ZM282.172,371.4l.423,6.521A12.055,12.055,0,0,0,282.172,371.4Zm-5.289,25.8c-.762-.947-1.34-1.676-1.93-2.393a22.432,22.432,0,0,0-1.8-2.426A8.091,8.091,0,0,0,276.883,397.2Zm3.446-69.877,2.194-2.057C281.537,325.7,280.35,325.917,280.328,327.319Zm72.481,86.494-2.048-.107A1.337,1.337,0,0,0,352.809,413.813ZM311.9,373.336l.883.79q.474.425.95.851c-.53-.523-1.084-1.02-1.64-1.514A1.762,1.762,0,0,0,311.9,373.336Zm13.055-8.4c-.561-.882-.561-.882-1.124-.5Zm34.388,23.916,1.2.037C360.108,388.138,359.714,388.335,359.34,388.848ZM310.6,379.095c.06-.615-.138-.91-.706-1.006C309.692,378.774,310.135,378.885,310.6,379.095Zm-28.23-11.283.159-.064a1.474,1.474,0,0,0-.089-.437,1.441,1.441,0,0,0-.324-.3l-.144.13Zm20.557,12.4.234-.088c-.094-.252-.188-.5-.282-.756l-.218.088C302.755,379.7,302.842,379.956,302.931,380.208Z" transform="translate(-253.273 -320.366)"/><path class="a" d="M310.345,384.564a20.157,20.157,0,0,1,1.974.456,56.013,56.013,0,0,0,8.821,2.062c1.12.183,2.223.475,3.622.78l-1.127.568-.764.047c-.412-.07-.821-.174-1.236-.2-4.083-.281-7.951-1.2-11.277-3.751Z" transform="translate(-232.219 -296.698)"/><path class="a" d="M266.614,379.14a3.893,3.893,0,0,1-.665-.706,102.339,102.339,0,0,1-7.6-16.939,52.866,52.866,0,0,1-1.669-6.312,8.6,8.6,0,0,1,.431-5.139c-.5,3.574.806,6.777,2.019,9.983.966,2.558,2.1,5.054,3.086,7.6,1.481,3.825,2.9,7.673,4.356,11.511Z" transform="translate(-252.093 -309.418)"/><path class="a" d="M315.311,395.191a4.623,4.623,0,0,1-.523,4.053l1.342,1.352-.055.075c-1.054-.639-2.1-1.285-3.162-1.917a41.866,41.866,0,0,0-8.323-3.659,27.738,27.738,0,0,1-6.2-2.747,13.982,13.982,0,0,1-4.375-3.912c1.268.884,2.29,1.656,3.37,2.338a30.355,30.355,0,0,0,6.916,3.032,32.018,32.018,0,0,1,6.884,2.78c.98.6,1.906,1.284,2.969,2.005C314.551,397.42,314.932,396.305,315.311,395.191Z" transform="translate(-238.244 -295.254)"/><path class="a" d="M293.606,363.548a39.758,39.758,0,0,1-14.519-6.035,10.971,10.971,0,0,1-1.417-1.469C278.778,356.137,291.474,362.127,293.606,363.548Z" transform="translate(-244.272 -307.204)"/><path class="a" d="M292.332,364.224a25.986,25.986,0,0,1-1.514-7.623C291.8,357.94,292.765,362.537,292.332,364.224Z" transform="translate(-239.422 -306.999)"/><path class="a" d="M327.036,381.179c.676-.01,1.357-.074,2.027-.021a23.807,23.807,0,0,0,8.828-1.251c.241-.074.479-.156.938-.305a8.763,8.763,0,0,1-5.37,2.55,16.612,16.612,0,0,1-5.463-.486,4.443,4.443,0,0,1-.964-.528Z" transform="translate(-226.063 -298.514)"/></g></g></svg>