<svg xmlns="http://www.w3.org/2000/svg" width="206.656" height="224.808" viewBox="0 0 206.656 224.808"><defs><style>.a{fill:#3b1500;}</style></defs><path class="a" d="M214.573,285.692a6.725,6.725,0,0,0-.475-1.473,15.08,15.08,0,0,0-.706-1.649,3.778,3.778,0,0,0,.034.489c.36,1.741.722,3.482,1.1,5.221a2.213,2.213,0,0,0,.26.513l-.32-.048c.049.3.078.567.136.825.384,1.711.795,3.416,1.153,5.133a5.866,5.866,0,0,0,.74,1.839c1.33,2.228,2.643,4.467,3.96,6.7.072.122.126.254.189.382l-.157.093c-1.956-2.668-3.817-5.4-5.571-8.224a.518.518,0,0,0,0,.344,14.773,14.773,0,0,0,1.7,3.115,34.435,34.435,0,0,1,2.236,3.312c1.068,1.892,2.046,3.837,3.021,5.781a37.6,37.6,0,0,1,2.694,7.446c.2.752.379,1.507.568,2.261l.151-.02-.148-2.486a.726.726,0,0,1,.184.389c.092.883.24,1.767.243,2.651.007,1.8-.076,3.606-.1,5.409a15.245,15.245,0,0,0,.065,1.994,34.254,34.254,0,0,1-.221,9.75,92.57,92.57,0,0,1-2.675,10.472,3.2,3.2,0,0,1,.119-1.423c.534-2.185,1.1-4.363,1.592-6.558a37.661,37.661,0,0,0,.9-8.462c0-.261-.026-.523-.04-.784a.813.813,0,0,0-.2.46c-.31,1.952-.588,3.91-.934,5.856a54.5,54.5,0,0,1-3.332,10.594,3.977,3.977,0,0,1-.406.634l-.146-.07a6.206,6.206,0,0,1,.092-.626c.234-.935.469-1.871.722-2.8.5-1.836,1.079-3.654,1.507-5.506a87.767,87.767,0,0,0,1.637-12.263,29.312,29.312,0,0,0-1.628-11.878,58.134,58.134,0,0,0-3.444-7.792,32.451,32.451,0,0,0-3.048-4.9,15.786,15.786,0,0,1-2.627-5.033,62.628,62.628,0,0,1-2.617-14.628,2.829,2.829,0,0,0-.223-.923.776.776,0,0,0-1.21-.385,7.819,7.819,0,0,0-4.023,6.14,16.177,16.177,0,0,0,.181,4.578,35.387,35.387,0,0,0,1.04,4.24,31.92,31.92,0,0,1,1.163,5.875,11.02,11.02,0,0,1-.121,3.761c-.228,1.088-.5,2.167-.777,3.244-.149.585-.516.73-1.067.459-.155-.076-.295-.184-.452-.256-.418-.193-.841-.374-1.305-.578-.109.516-.185.95-.294,1.375-.384,1.5-1.083,2.929-.867,4.55.052.387-.332.612-.721.483-.256-.085-.481-.262-.738-.341a7.957,7.957,0,0,0-1.493-.373c-.674-.069-1.359-.032-2.051-.04a7.166,7.166,0,0,1-.72,3.186c-.539,1.027-.995,2.1-1.48,3.15-.248.539-.457,1.1-.727,1.624-.257.5-.445.512-.956.284-1.345-.6-2.7-1.173-4-1.733a16.2,16.2,0,0,1-.859,1.67,12.79,12.79,0,0,1-2.7,2.936,11.249,11.249,0,0,0-3.269,3.779c-.16.323-.354.617-.762.6-.377-.013-.5-.333-.69-.6a13.481,13.481,0,0,0-1.291-1.7c-.682-.705-1.448-1.327-2.212-2.014a11.063,11.063,0,0,1-4.4,2.124,21.858,21.858,0,0,0-4.886,1.7,1.3,1.3,0,0,1-.35.117.726.726,0,0,1-.962-.724c-.011-.146.025-.3.021-.443-.045-1.623-.094-3.245-.142-4.885a2.476,2.476,0,0,0-.354-.013,33.822,33.822,0,0,1-7.027,0,17.737,17.737,0,0,1-2.555-.426,3.435,3.435,0,0,1-1.187-.572.708.708,0,0,1-.141-1.108c.885-1.078,1.108-2.459,1.839-3.686a2.805,2.805,0,0,0-.4-.011,31.954,31.954,0,0,1-7.169.149,8.416,8.416,0,0,1-4.864-1.989c-.57-.473-1.124-.967-1.666-1.471a9.141,9.141,0,0,0-2.765-1.833c-.286-.117-.552-.249-.6-.59-.055-.389.234-.546.5-.743a11.385,11.385,0,0,0,2.963-3.176c.134-.218.231-.459.373-.744a18.922,18.922,0,0,1-2.626-.054,19.223,19.223,0,0,1-8.808-3.826,1.927,1.927,0,0,0-1.279-.511,1.471,1.471,0,0,1-.439-.057.587.587,0,0,1-.346-.937,2.412,2.412,0,0,1,.4-.43c.489-.454,1-.888,1.471-1.355.362-.357.685-.752,1.017-1.12-.077-.089-.089-.117-.106-.12-.12-.026-.241-.048-.362-.068a13.582,13.582,0,0,1-7.92-4.3c-.64-.686-1.3-1.352-1.963-2.015a2.658,2.658,0,0,0-.489-.311l-.13-.267a.84.84,0,0,0,.134-.167c.271-.612.27-.587.919-.593a2.462,2.462,0,0,0,.922-.2c1.285-.546,1.721-1.793,2.428-2.885a10.543,10.543,0,0,1-3.988-2.093,16.984,16.984,0,0,1-5.056-6.483,9.079,9.079,0,0,0-2.33-3.391,1.6,1.6,0,0,1-.206-.213c-.481-.6-.385-1.084.3-1.434.395-.2.814-.364,1.2-.582a6.04,6.04,0,0,0,2.584-2.579c-.165-.128-.295-.237-.433-.336a10.3,10.3,0,0,1-2.631-2.684c-.343-.514-.719-1.006-1.048-1.528a5.171,5.171,0,0,0-2.739-2.375,1.7,1.7,0,0,1-.458-.241.56.56,0,0,1-.151-.891,8.237,8.237,0,0,1,3.971-3.089c.057-.015.1-.076.186-.145-.236-.188-.445-.356-.655-.522a11.548,11.548,0,0,1-2.65-2.776c-.626-.976-1.2-1.987-1.749-3.009a6.423,6.423,0,0,0-2.328-2.628,4.614,4.614,0,0,1-.66-.477.7.7,0,0,1-.156-1.1c.994-1.322,1.6-2.974,3.24-3.732-.095-.111-.119-.166-.158-.18a8.006,8.006,0,0,1-4.358-4.23c-.343-.685-.715-1.355-1.077-2.031a3.588,3.588,0,0,0-1.269-1.414c-.568-.356-.561-.852-.027-1.253.315-.237.67-.42.994-.645a18.09,18.09,0,0,1,3.826-2.1c.133-.051.256-.124.433-.211-.2-.208-.365-.386-.536-.558a18.5,18.5,0,0,1-4.63-6.9,2.571,2.571,0,0,0-1.508-1.723.708.708,0,0,1-.488-.756.74.74,0,0,1,.6-.67c.786-.21,1.576-.4,2.365-.6.178-.045.358-.079.538-.119-.471-.9-.942-1.736-1.355-2.6a6.039,6.039,0,0,1-.635-2.646,1.355,1.355,0,0,1,1.3-1.516c.243-.04.491-.05.734-.093.327-.057.651-.132,1-.2l-.434-1.063.836.36c-.269-.447-.425-.757-.627-1.034-.64-.877-1.307-1.736-1.945-2.615A22.81,22.81,0,0,1,103.626,207a2.476,2.476,0,0,1-.047-2.223.789.789,0,0,1,.845-.577,3.793,3.793,0,0,0,2.611-.878c.9-.684,1.778-1.4,2.67-2.113a.568.568,0,0,0-.066-.13c-.148-.165-.3-.325-.452-.489a9.9,9.9,0,0,1-2.423-4.6,18.339,18.339,0,0,1-.37-4.052,5.373,5.373,0,0,0-1.254-3.7,1.555,1.555,0,0,1-.137-.175c-.358-.543-.272-.956.33-1.169a7.674,7.674,0,0,1,1.723-.4c.857-.091,1.725-.087,2.588-.134.252-.014.5-.064.781-.1-.064-.164-.085-.234-.118-.3-.737-1.425-1.548-2.817-2.2-4.281a21.594,21.594,0,0,1-1.951-8.84c0-1.431.036-2.866.133-4.294a7.209,7.209,0,0,0-.549-3.474c-.17-.384-.317-.779-.451-1.177a2.411,2.411,0,0,1-.151-.72c-.007-.569.406-.812.892-.525a2.958,2.958,0,0,1,.556.483c.611.612,1.2,1.241,1.823,1.844a23.841,23.841,0,0,0,5.012,3.542,28.791,28.791,0,0,1,5.036,3.639,35.818,35.818,0,0,1,4.623,4.584c.034.044.116.052.131.057a9.972,9.972,0,0,1,.381-1.5c.28-.664.864-.733,1.358-.211a6.424,6.424,0,0,1,.545.7,5.318,5.318,0,0,0,3.742,2.421,7.453,7.453,0,0,1,.867.2,4.477,4.477,0,0,1,2.365,1.446c.283.333.565.667.852,1.006.25-.948.5-1.866.733-2.786a.719.719,0,0,1,.575-.6.684.684,0,0,1,.762.344,5.339,5.339,0,0,0,3.2,2.248c.583.206,1.171.4,1.752.607a6.179,6.179,0,0,1,3.178,2.438c.226.343.448.689.729,1.122.1-.28.178-.476.249-.672a9.317,9.317,0,0,1,.408-1.111.83.83,0,0,1,1.408-.243,2.392,2.392,0,0,1,.3.327,24.462,24.462,0,0,0,6.047,5.629,7.9,7.9,0,0,1,2.75,3.048,3.366,3.366,0,0,0,.315.423c0-.9-.006-1.687-.009-2.588l.351.425c.052-.512.094-.928.138-1.362l.323-.1c-.062-.227-.114-.416-.162-.59.218.139.41.355.625.38a1.46,1.46,0,0,1,1.039.75,14.179,14.179,0,0,0,2.424,2.789,30.463,30.463,0,0,1,6.45,7.59,25.277,25.277,0,0,0,6.979,7.379,2.458,2.458,0,0,0,1.766.6,4.069,4.069,0,0,1,.957.089c.515.064,1.028.139,1.543.2a.874.874,0,0,0,.852-.325c.3-.362.628-.7.953-1.031.236-.244.486-.473.685-.666.182.193.312.34.452.478a5.381,5.381,0,0,1,.626.608c.261.358.473.752.7,1.135a23.233,23.233,0,0,1,2.709,7.65,49.7,49.7,0,0,1,1.224,8.267c.487-.183.961-.328,1.406-.537.736-.345,1.471-.7,2.171-1.109a2.682,2.682,0,0,0,1.437-2.2.814.814,0,0,1,1.289-.692,2.9,2.9,0,0,1,1.04.807,23.581,23.581,0,0,1,1.96,2.956,61,61,0,0,1,4.728,12.843c.578,2.2,1.137,4.4,1.744,6.589a8.23,8.23,0,0,0,1.107,2.388c.074-.09.116-.121.131-.162a15.769,15.769,0,0,0,1.258-5.311.864.864,0,0,1,.455-.87.844.844,0,0,1,1.007.262,12.77,12.77,0,0,1,1.315,1.5,22.091,22.091,0,0,1,2.974,6.913,21.157,21.157,0,0,1,.339,9.114c-.2,1.2-.348,2.4-.54,3.593a1.5,1.5,0,0,0,.283,1.163,22.925,22.925,0,0,1,1.641,2.723,25.113,25.113,0,0,1,1.866,6.233c.356,1.793.647,3.6.969,5.4.116.651.331.863.984.992.468.092.668.306.571.769a5.754,5.754,0,0,1-.51,1.618,2.048,2.048,0,0,0-.189,1.558c.528,2.31,1.062,4.62,1.587,6.932a5.553,5.553,0,0,1,.383,2.533.685.685,0,0,0,.08.356,31.69,31.69,0,0,0,2.763,5.98c.872,1.348,1.757,2.69,2.677,4.006a88.759,88.759,0,0,1,4.794,7.666,57.054,57.054,0,0,1,4,9.165,20.5,20.5,0,0,1,1.194,8.817,44.809,44.809,0,0,1-3.292,14.091c-.283.632-.539,1.277-.767,1.93-.152.438-.232.9-.345,1.351-.023.092-.041.259-.077.264-.41.049-.336.431-.449.663-.348.709-.643,1.444-.98,2.159-.121.257-.241.564-.736.5a5.586,5.586,0,0,1,.136-.754c.552-1.718,1.119-3.431,1.675-5.148a5.049,5.049,0,0,0,.172-.719c.274-1.608.518-3.221.815-4.824a47.518,47.518,0,0,0,.932-7.572,19.557,19.557,0,0,0-.622-5.651,16.243,16.243,0,0,0-2.172-4.529,11.881,11.881,0,0,1-1.847-5.794c-.061-.911-.131-1.823-.225-2.732a5.917,5.917,0,0,0-1-2.762c-1.353-1.979-2.731-3.94-4.078-5.922-1.1-1.614-2.214-3.217-3.232-4.88a18.363,18.363,0,0,1-2.411-6.181C214.706,287.755,214.691,286.718,214.573,285.692Zm-73.406-44.181c3.174.848,6.35,1.69,9.518,2.558,1.191.326,2.364.714,3.546,1.073a1.45,1.45,0,0,0,.727.088l-14.922-6.06c4.565,1.352,9.151,2.651,13.7,4.114-.3-.146-.589-.3-.886-.438q-4.745-2.272-9.489-4.545a1.449,1.449,0,0,1-.229-.175l.019-.05a3.9,3.9,0,0,1,.495.113,129.046,129.046,0,0,1,12.573,5.09.355.355,0,0,0,.339,0q-3.843-2.511-7.685-5.025c-2.547-1.676-5.085-3.367-7.627-5.051l.085-.141,11.98,6.716.044-.033c-1.651-1.436-3.312-2.861-4.952-4.309-1.661-1.465-3.3-2.952-4.952-4.43l.1-.127,6.882,5.126.062-.063-4.426-4.722.088-.091,7.256,6.393a4.422,4.422,0,0,0-.291-.5c-2.216-2.722-4.261-5.571-6.246-8.464a2.052,2.052,0,0,0-1.061-.875c-.894-.287-1.781-.594-2.685-.844-.714-.2-1.443-.346-2.173-.471a46.682,46.682,0,0,1-13.069-4.482,83.439,83.439,0,0,1-8.7-5.233.292.292,0,0,1-.133-.273c.21.1.419.2.63.3,4.3,2.012,8.583,4.051,12.9,6.026a46.945,46.945,0,0,0,8.238,2.69.345.345,0,0,0,.286-.041l-9.2-3.575a75.358,75.358,0,0,1,8.539,2.169,63.718,63.718,0,0,1-6.775-5.34c2.9,1.591,5.782,3.225,8.547,5.062q-3.476-3.66-6.952-7.321l.1-.1,4.265,3.5.087-.06a1.163,1.163,0,0,0-.13-.259c-1.323-1.532-2.662-3.05-3.97-4.6a2.72,2.72,0,0,0-1.26-.848c-4.933-1.69-9.851-3.426-14.793-5.094a28.388,28.388,0,0,1-9.211-5.411,6.6,6.6,0,0,1-.511-.533,39.834,39.834,0,0,0,5.491,2.923c1.347.617,2.732,1.153,4.1,1.721a.769.769,0,0,0,.433.052l-5.963-3.617.061-.123,5.8,2.576a49.029,49.029,0,0,1-5.824-6.867l7.579,6.855.1-.1c-.483-.552-1.01-1.072-1.441-1.661-1.253-1.715-2.526-3.419-3.684-5.2-1.63-2.505-3.164-5.074-4.738-7.616a.3.3,0,0,1-.028-.246c.185.208.373.415.557.625a85.769,85.769,0,0,1,6.993,9.289,26.043,26.043,0,0,0,8.287,8.138c.994.6,1.967,1.237,2.959,1.841a6.023,6.023,0,0,0,.931.454c1.589.619,3.182,1.227,4.775,1.837a2.15,2.15,0,0,0,.28.056,4,4,0,0,0-.627-1.643q-3.932-5.752-7.864-11.506c-2.226-3.267-4.411-6.563-6.67-9.808-2.695-3.872-5.379-7.754-8.366-11.414-.028-.033-.027-.09-.071-.25.28.259.49.447.692.643a82.456,82.456,0,0,1,10.976,13.2c1.926,2.844,3.874,5.672,5.813,8.507a2.146,2.146,0,0,0,.18.2c.145-.324-.056-.541-.171-.753-.565-1.044-1.156-2.073-1.721-3.116-1.013-1.869-2.014-3.744-3.019-5.618a.429.429,0,0,1-.049-.313l2.828,4.177.086-.05-4.56-12.849.155-.06c1.531,3.13,3.187,6.2,4.469,9.462-.294-1.065-.576-2.134-.885-3.195-.317-1.089-.661-2.17-1.032-3.379.48.981.9,1.845,1.328,2.71l.056.038-.082-.247.173,0,3.194,7.793.07-.017c-.262-1.071-.521-2.142-.785-3.212a42.519,42.519,0,0,0-3.722-10.056c-.492-.912-1.044-1.793-1.608-2.664a2.131,2.131,0,0,0-.74-.7,3.815,3.815,0,0,1-1.307-1.183,37.983,37.983,0,0,0-7.425-7.306,20.322,20.322,0,0,0-2.533-1.674,28.646,28.646,0,0,1-6.072-4.468.891.891,0,0,0-.177-.093,2.14,2.14,0,0,0,.062.426,7.813,7.813,0,0,1,.332,3.144c-.072,1.7-.135,3.407-.1,5.109a20.044,20.044,0,0,0,1.609,7.045,23.112,23.112,0,0,0,2.069,4.346c.218.328.447.65.695.956.451.557.342.941-.373,1.093a14.067,14.067,0,0,1-1.828.262c-.713.055-1.432.037-2.147.071-.359.018-.716.081-1.073.124.018.125.007.185.033.218a6.338,6.338,0,0,1,1.266,4.1c0,.741.024,1.482.061,2.222a10.657,10.657,0,0,0,1.7,5.231,7.069,7.069,0,0,0,1.463,2.029c.367.286.208.783-.253,1.018-.267.137-.67.1-.694.544a3.442,3.442,0,0,0-.577.275c-.582.416-1.146.857-1.726,1.277a5.317,5.317,0,0,1-2.612.964,2.287,2.287,0,0,0-.281.065.983.983,0,0,0,.2,1.1,104.276,104.276,0,0,0,8.26,10.175q1.995,2.141,3.928,4.34a10.015,10.015,0,0,1,.811,1.245l-.582-.239.821.951-.06.069c-.145-.1-.294-.2-.435-.3a77.922,77.922,0,0,1-8.731-7.677c-.17-.173-.32-.474-.724-.233,2.267,2.6,5.144,4.517,7.484,7-3.006-1.87-6.1-3.639-7.9-7.035l-2.017.307a2.958,2.958,0,0,0,.311,1.735c.445.991.956,1.951,1.441,2.923a2.046,2.046,0,0,0,.147.258c.674.99.162,1.737-.928,1.693a9.9,9.9,0,0,0-1.57.173c.628,1.414,1.183,2.81,1.858,4.145a19.5,19.5,0,0,0,3.929,4.985c.176.173.363.338.523.525.444.521.287,1.034-.378,1.237-.188.057-.386.084-.578.13a10.782,10.782,0,0,0-3.243,1.423,1.317,1.317,0,0,0-.262.327,1.584,1.584,0,0,0-1.071.536,15.581,15.581,0,0,1,2.375,4.1,8.142,8.142,0,0,0,3.628,3.684,1,1,0,0,0,.9.108.586.586,0,0,1,.823.263c.152.315.033.62-.366.851-.3.174-.616.314-.924.472a4.773,4.773,0,0,0-2.039,1.883c-.22.385-.467.754-.7,1.122.037.059.053.118.089.136a6.8,6.8,0,0,1,2.915,3.061c.593,1.082,1.175,2.177,1.862,3.2a17.155,17.155,0,0,0,3.87,3.854,2.717,2.717,0,0,1,.617.522.945.945,0,0,1,.132.669c-.061.267-.335.335-.605.3a2.056,2.056,0,0,1-.216-.052,3.853,3.853,0,0,0-3.637.97c-.384.339-.748.7-1.155,1.085.231.125.377.219.534.286a4.359,4.359,0,0,1,1.961,1.75c.505.791,1,1.59,1.476,2.4a9.363,9.363,0,0,0,2.4,2.691,1.128,1.128,0,0,0,.862.348.87.87,0,0,1,.543.181.489.489,0,0,1-.035.892,2.606,2.606,0,0,0-1.052.991,8.586,8.586,0,0,1-2.623,2.142c-.147.084-.3.163-.433.238.01.085,0,.149.023.173a9.452,9.452,0,0,1,2.032,3.157,17.237,17.237,0,0,0,3.772,5.716,11.118,11.118,0,0,0,3.523,2.418,3.522,3.522,0,0,0,1.728.323c.489-.055.733.269.611.74a1.352,1.352,0,0,1-.184.4c-.519.782-1.032,1.568-1.571,2.336A4.612,4.612,0,0,1,125,290.312a24.587,24.587,0,0,0,2.623,2.775,13.48,13.48,0,0,0,3.878,2.143,19.1,19.1,0,0,0,2.6.524c.217.041.447.014.664.056a.681.681,0,0,1,.572.984,3.372,3.372,0,0,1-.542.963c-.49.585-1.028,1.13-1.55,1.688-.133.143-.279.273-.4.4l1.656,1.283a5.059,5.059,0,0,0,.474.356,18.764,18.764,0,0,0,8.936,2.875,1.679,1.679,0,0,0,1.047-.273,60.241,60.241,0,0,0,8.863-6.925,1.309,1.309,0,0,0,.36-.5l-9.855,5.253-.04-.062,7.3-5.177c-1.668.483-3.186,1.352-4.869,1.831l9.592-5.908c-2.5.493-4.862,1.151-7.254,1.681s-4.8,1.108-7.21,1.645c4.814-1.941,9.61-3.941,14.775-4.8l-15.735-.5,0-.151c3.661-.211,7.32-.483,10.984-.615,3.688-.133,7.382-.126,11.075-.26-1.616-.1-3.234-.316-4.848-.289a75.39,75.39,0,0,1-16.621-1.812c-1.6-.331-3.192-.652-4.771-1.1,1.674.188,3.346.393,5.023.557s3.371.285,5.062.377a146.806,146.806,0,0,1-25.214-10.9,1.386,1.386,0,0,1,.812.132,145.254,145.254,0,0,1,14.064,5.147c2.97,1.227,5.943,2.45,9.021,3.395A54.269,54.269,0,0,0,154,287.031a4.848,4.848,0,0,0-1.138-.466c-.4-.14-.8-.27-1.194-.407q-.632-.216-1.261-.436a3.942,3.942,0,0,1-1.145-.555c.2.035.4.064.591.107,3.718.816,7.433,1.645,11.155,2.439A15.809,15.809,0,0,0,163,287.9a.435.435,0,0,0,.276-.083c-4.429-.789-8.437-2.7-12.441-4.642.505.175,1.009.352,1.515.525s1.03.351,1.547.519c.541.174,1.086.34,1.629.509s1.085.34,1.628.508c.52.16,1.041.315,1.561.476.543.167,1.084.345,1.629.505q.783.231,1.574.432a8,8,0,0,0,1.668.278c-.147-.058-.291-.125-.442-.173a72.244,72.244,0,0,1-11.666-4.932c-1.008-.527-2.02-1.045-3.025-1.577a4.776,4.776,0,0,1-.53-.373l-.007.019a6.072,6.072,0,0,1,.689.187q6.957,2.781,13.911,5.567c1.033.411,2.091.76,3.139,1.135a.833.833,0,0,0,.5.043c-.163-.082-.322-.174-.489-.245a142.452,142.452,0,0,1-12.868-6.259,18.777,18.777,0,0,0-2.11-.9q-4.511-1.807-9.025-3.6a1.988,1.988,0,0,1-.23-.136c.1-.027.169-.066.223-.054a80.875,80.875,0,0,1,9.865,2.686,86.681,86.681,0,0,1,11.8,5.366c1.213.668,2.436,1.318,3.672,1.94a16.376,16.376,0,0,0,5.9,1.64,4.711,4.711,0,0,0,1.107-.025,49.8,49.8,0,0,0,10.882-2.821c2.6-1.01,5.176-2.1,7.761-3.158a1.223,1.223,0,0,0,.563-.415L181,283.543c3.8-1.283,7.585-2.638,11.489-3.631l-10.929,1.5-.013-.078,10.266-2.8-.017-.145a134.392,134.392,0,0,1-16.477.307l13.438-1.173-.005-.025-14.685-.709c8.731-.661,17.464-1.12,26.22-1.016l.006-.21c-2.725-.267-5.453-.5-8.174-.809-2.775-.31-5.546-.668-8.314-1.037-2.742-.365-5.479-.769-8.282-1.165.444-.16,9.212.375,13.792.843s9.13.971,13.708,1.409a16.715,16.715,0,0,0-2.832-.742c-1-.28-2.026-.451-3.042-.663-.993-.206-1.987-.4-2.98-.607-1.017-.208-2.036-.411-3.05-.633-.99-.217-1.976-.455-2.963-.683s-1.974-.463-2.963-.688q-1.518-.347-3.04-.678a22.982,22.982,0,0,1-2.957-.771c.585.067,1.17.13,1.754.2.638.079,1.274.167,1.912.249q.92.119,1.839.234c.613.077,1.226.152,1.839.232.637.084,1.274.173,1.911.26a12.562,12.562,0,0,0,1.812.157l-9.678-2.981.022-.114,1.765.36.042-.146-3.79-1.2a56.322,56.322,0,0,1,7.637,1.553c2.521.693,5.012,1.493,7.594,2.269a5.164,5.164,0,0,0-.427-.3c-3.344-1.869-6.684-3.743-10.04-5.589a2.5,2.5,0,0,0-1.127-.264,27.07,27.07,0,0,0-5.9.521,120.019,120.019,0,0,1-12.245,1.709,78.935,78.935,0,0,1-12.354.438,45.683,45.683,0,0,1-19.529-5.539,70.791,70.791,0,0,1-8.6-5.654,1.226,1.226,0,0,1-.308-.317A86.265,86.265,0,0,0,139.288,263l.076-.163-7.932-3.425.046-.112,7.461,2.478.063-.152-2.039-.906.02-.061,12.2,3.6.039-.121c-2.048-.8-4.1-1.572-6.142-2.395s-4.055-1.69-6.041-2.651c1.767.576,3.527,1.172,5.3,1.723s3.55,1.053,5.369,1.5a2.982,2.982,0,0,0-.273-.186,113.037,113.037,0,0,1-10.822-6.736c-1.274-.886-2.571-1.739-3.851-2.658.187.069.38.127.562.21a91.569,91.569,0,0,1,10.135,5.409,59.413,59.413,0,0,0,8.157,4.386,29.842,29.842,0,0,0,11.556,2.337,42.878,42.878,0,0,0,4.787-.482,9.391,9.391,0,0,0,1.388-.249l-7.259-.832c3.945-.268,7.886-.14,11.84-.211-4.822-.623-9.359-2.257-13.941-3.719l10.5,2,.055-.176-1.99-.717.032-.082,5.937,1.118.056-.156c-3.889-1.366-7.574-3.183-11.239-4.895l11.339,3.625a146.7,146.7,0,0,1-13.156-8.438,161.29,161.29,0,0,1,17.317,10.014l.1-.154-13.16-9.519.077-.121,3.407,1.874.066-.074c-.116-.131-.224-.271-.351-.39-.468-.441-.97-.848-1.406-1.317a6.72,6.72,0,0,0-2.391-1.575,27.5,27.5,0,0,0-5.909-1.684c-.268-.047-.535-.1-.8-.132-5.789-.587-11.47-1.82-17.186-2.851-3.526-.636-7.071-1.2-10.627-1.638-7.155-.884-13.637-3.591-19.84-7.1-1.181-.668-2.322-1.409-3.481-2.116.234.068.474.119.7.207q6.663,2.607,13.324,5.22a20.013,20.013,0,0,0,4.764,1l-4.34-1.85.048-.12,10.032,2.943.054-.136a66.632,66.632,0,0,1-12.384-6.183l11.342,4.817.079-.126c-.554-.413-1.173-.734-1.747-1.119s-1.154-.764-1.724-1.155c-.591-.4-1.181-.812-1.76-1.233-.56-.407-1.107-.831-1.657-1.25q-.855-.652-1.705-1.309c-.547-.423-1.091-.849-1.639-1.272q-.851-.657-1.7-1.309a16.888,16.888,0,0,1-1.586-1.327l8.013,5.152.084-.129a71.6,71.6,0,0,0-19.175-13.6c.219.069.44.13.656.207a49.551,49.551,0,0,1,9.9,4.516,51.878,51.878,0,0,1,7.9,6.351c1.817,1.709,3.618,3.438,5.495,5.079a27.5,27.5,0,0,0,9.671,5.632,13.883,13.883,0,0,0,1.361.355c.6.13,1.221.2,1.82.35a49.537,49.537,0,0,0,8.8,1.153,3.3,3.3,0,0,0,.358-.032,3.79,3.79,0,0,0-.478-.275q-5.364-1.957-10.73-3.907a4.47,4.47,0,0,1-.454-.227l.013-.044A3.608,3.608,0,0,1,141.167,241.511Zm64.471,1.625c-.1,5.049.38,10.069.712,15.1.207,3.131.4,6.261.893,9.365a40.293,40.293,0,0,0,2.391,8.7c.256.641.256.641,1.068,1.046-.026-.174-.039-.3-.064-.423-.408-1.983-.836-3.962-1.224-5.949a40.435,40.435,0,0,1-.757-10.981,1.6,1.6,0,0,0-.249-1.054,5.387,5.387,0,0,1-.553-1l.845.522a22.345,22.345,0,0,0-2.724-18.284,5,5,0,0,0-.411,1.919c-.092.068-.233.116-.269.206a8.042,8.042,0,0,1-1.711,2.667l.224.767a2.719,2.719,0,0,0-.517-.155,1.14,1.14,0,0,0-.34.072,1.921,1.921,0,0,0-.194-.684,15.133,15.133,0,0,1-2.417-5.295c-.745-2.639-1.427-5.3-2.244-7.914a48.7,48.7,0,0,0-3.915-9.515,8.413,8.413,0,0,0-1.706-2.265,4.465,4.465,0,0,1-2.426,2.954,6.061,6.061,0,0,1-3.775,1.121c.231,1.042.457,2.064.683,3.085l-.114.035c-.533-1.447-1.081-2.888-1.6-4.34s-.989-2.9-1.6-4.329l.51,5.935-.094.021c-.264-.917-.527-1.834-.84-2.924-.014.875-.025,1.576-.036,2.277l-.1.005-2.082-11.237-.142.011-.63,11.222-.153-.006a45.78,45.78,0,0,1,.022-14.775c-.384,1.361-.748,2.729-1.156,4.083-.414,1.372-.87,2.73-1.4,4.1l-.064-.642-.087-.031-.369.976a41.928,41.928,0,0,1,1.115-7.585l-1.787,2.652-.163-.088c.48-1.281.961-2.563,1.459-3.893-.5-.116-1.013-.195-1.5-.353-.89-.291-1.774-.608-2.643-.959-.216-.087-.337-.387-.546-.52a25.068,25.068,0,0,1-7.568-7.821c-.705-1.1-1.559-2.1-2.353-3.141a1.981,1.981,0,0,0-.476-.426c1.466,2.339,2.985,4.645,4.382,7.024s2.679,4.845,3.985,7.287l-6.6-9.489-.073.039,2.5,6.25-.02.006-4.741-8.7-.057.029c1.143,2.464,2.32,4.913,3.419,7.4s2.121,5,3.126,7.517l-4.731-8.313c.93,2.946,2.052,5.822,3.049,8.75l-4.738-9.669-.112.042,2.365,8.8-.057.019c-.148-.39-.274-.788-.446-1.167-.976-2.157-1.968-4.31-2.733-6.554-.741-2.173-1.42-4.368-2.124-6.555-.477-1.481-.949-2.964-1.427-4.445a4.24,4.24,0,0,0-.21-.434,4.628,4.628,0,0,0-.011,1.953q1.377,6.033,2.768,12.063c.066.287.129.574.23,1.025a2.554,2.554,0,0,1-.206-.332,99.843,99.843,0,0,1-3.5-11.633c-.04-.189-.073-.451-.2-.536a2.591,2.591,0,0,1-.8-1.3c-.339-.742-.679-1.484-1.026-2.222a6.837,6.837,0,0,0-2.437-2.829c-.472-.316-.936-.644-1.4-.971a22.186,22.186,0,0,1-4.758-4.5,7.794,7.794,0,0,0-.541,1.967c-.04.243-.049.493-.1.734a.733.733,0,0,1-1.352.234c-.128-.211-.223-.441-.34-.659-.4-.74-.771-1.492-1.2-2.213A4.582,4.582,0,0,0,140,182.049c-.3-.112-.6-.22-.909-.321a19.105,19.105,0,0,1-3.63-1.493l5.286,16.716-.087.037q-1.279-2.795-2.557-5.588l-.108.018.138,1.187-.1.023-2.217-7.643a21.386,21.386,0,0,0,1.3,6.048c.716,1.92,1.485,3.822,2.266,5.717a37.553,37.553,0,0,0,2.765,5.507c-.2-.235-.4-.469-.592-.706-.22-.268-.438-.536-.649-.811a35.376,35.376,0,0,1-5.163-9.123,29.914,29.914,0,0,1-1.777-7.026,3.482,3.482,0,0,0-.882-2.13c-.491-.516-.885-1.125-1.325-1.69a3.606,3.606,0,0,0-2.094-1.313c-.289-.066-.576-.146-.868-.194a6,6,0,0,1-3.787-2.277,1.333,1.333,0,0,0-.561-.436c.034.247.061.5.1.74.106.632.237,1.26.322,1.894a1.534,1.534,0,0,0,.484.96,20.437,20.437,0,0,1,5.615,9.7c.942,3.531,1.732,7.1,2.631,10.646.779,3.064,1.612,6.115,2.437,9.167a3.034,3.034,0,0,0,.426.856q3.017,4.538,6.049,9.064a4.647,4.647,0,0,0,.805.979c-.607-1.122-1.218-2.241-1.82-3.366-.616-1.154-1.223-2.314-1.792-3.5l2.06,2.961.111-.047c-.361-.828-.707-1.662-1.087-2.481s-.8-1.643-1.1-2.515l5.1,8.489-2.528-8.147.069-.026q.972,2.148,1.945,4.3l.147-.046-.669-4.571.073-.018.387,1.328.108-.008q-.03-1.662-.061-3.323l.12-.017q1.47,5.865,2.939,11.728l.079-.013c-.011-.168-.021-.337-.034-.506-.172-2.364-.408-4.726-.5-7.094a31.176,31.176,0,0,0-1.256-7.58c-.933-3.2-1.84-6.412-2.764-9.617-.156-.542-.338-1.076-.446-1.645a4.183,4.183,0,0,1,.238.4c1.189,2.636,2.469,5.236,3.541,7.919a41.841,41.841,0,0,1,3,17.036c-.043,1.309-.08,2.619-.081,3.928a13.962,13.962,0,0,0,2.071,7.253c.8,1.338,1.529,2.719,2.4,4.009.728,1.082,1.6,2.066,2.426,3.082a17.351,17.351,0,0,0,1.381,1.506,53.859,53.859,0,0,1-4.352-12.246c.374.975.715,1.964,1.13,2.921.492,1.133,1.011,2.257,1.584,3.35.884,1.686,1.82,3.345,2.744,5.009.109.2.135.507.481.476q.277.669.553,1.338l.079-.034-.631-1.288c-.534-1.066-1.126-2.1-1.593-3.185a43.228,43.228,0,0,1-3-10.444,3.593,3.593,0,0,1-.031-.882,64.572,64.572,0,0,0,4.611,11.56c-1.12-3.858-2.006-7.764-2.812-11.846.888,2.614,1.7,5.086,2.567,7.54s1.684,4.953,2.744,7.353a72.229,72.229,0,0,1-3.288-18.2,87.629,87.629,0,0,0,2.676,10.477,2.3,2.3,0,0,0,.027-.369,108.763,108.763,0,0,0-2.832-18.512c-.929-3.561-1.979-7.09-2.991-10.629-.762-2.66-1.549-5.312-2.33-7.967a12.227,12.227,0,0,1-.472-1.885c.119.242.235.485.356.725a94.5,94.5,0,0,1,9.346,33.435c.33,3.319.578,6.645.913,9.963a28.447,28.447,0,0,0,1.111,5.589,29.371,29.371,0,0,0,2.8,6.125c.683,1.172,1.477,2.279,2.228,3.411a2.021,2.021,0,0,0,.344.384q2.83,2.5,5.668,5a1.208,1.208,0,0,0,.593.289c-.2-.306-.4-.606-.585-.918a10.647,10.647,0,0,1-1.237-3.321,9.908,9.908,0,0,0-1.04-3.153l.354.5a.609.609,0,0,0,.1-.026c.019-.011.049-.032.048-.046-.338-3.092-.6-6.195-1.038-9.273a122.205,122.205,0,0,0-2.3-12.832,7.2,7.2,0,0,1-.282-1.381c.295.747.611,1.488.882,2.244a60,60,0,0,1,3.671,16.363,12.969,12.969,0,0,0,1.35,4.972,38.055,38.055,0,0,0,4.367,7.215c.171.21.354.412.539.61a1.74,1.74,0,0,0,.315.173c-.324-.727-.58-1.35-.875-1.953-1.022-2.087-2.066-4.163-3.081-6.253-.242-.5-.4-1.038-.627-1.632l2.152,3.817.139-.048c-.323-1.517-.906-2.974-1.157-4.506q.4.816.8,1.633h.1c-.057-.627-.113-1.254-.183-2.028.682,1.648,1.308,3.16,1.935,4.671l.17-.045-.822-5.116.18-.045c.865,2.422,1.544,4.909,2.456,7.419a1.515,1.515,0,0,0,.057-.231,1.277,1.277,0,0,0-.011-.222c-.211-1.689-.472-3.375-.623-5.071a29.073,29.073,0,0,0-1.221-5.488c-1.437-4.963-3.132-9.842-4.91-14.691-.672-1.832-1.458-3.622-2.235-5.537.27.445.5.787.693,1.148a105.033,105.033,0,0,1,5.551,11.561,77.42,77.42,0,0,1,3.65,12.279c.556,2.634,1.059,5.28,1.561,7.925a5.888,5.888,0,0,0,.767,1.989,32.087,32.087,0,0,0,6.793,7.78,4.066,4.066,0,0,0,.866.569,36.743,36.743,0,0,1-5.657-8.351,42.152,42.152,0,0,1-3.279-9.5,46.02,46.02,0,0,0,4.385,8.512c-.45-1.039-.921-2.07-1.344-3.12-.432-1.071-.817-2.161-1.229-3.261.128-.018.195-.04.2-.028a63.948,63.948,0,0,0,5.279,7.873c2.27,2.99,4.524,5.994,6.853,8.938a44.06,44.06,0,0,0,5.268,5.514,2.9,2.9,0,0,0,1.413.724c-.162-.2-.245-.32-.348-.423-1.644-1.638-3.359-3.211-4.92-4.924a34.232,34.232,0,0,1-6.644-10.8c-.793-2.051-1.549-4.115-2.32-6.174a.311.311,0,0,1,.006-.23,64.871,64.871,0,0,0,5.235,9.25c-.1-.286-.184-.575-.289-.858-1.132-3.06-2.274-6.116-3.4-9.177A64.823,64.823,0,0,0,187,239.724c-1.084-1.828-2.151-3.667-3.288-5.462-.79-1.248-1.686-2.43-2.593-3.723a4.459,4.459,0,0,1,.41.319,59.24,59.24,0,0,1,6.806,8.009,42.5,42.5,0,0,1,4.6,8.7c1.406,3.616,2.678,7.283,4.026,10.921a42.66,42.66,0,0,0,4.5,9.249c.8,1.184,1.694,2.309,2.549,3.459a.571.571,0,0,0,.337.205c-.037-.1-.067-.2-.113-.287a74.254,74.254,0,0,1-4.806-13.063,155.793,155.793,0,0,1-4.685-25.032c-.129-1.178-.307-2.351-.461-3.527,0-.021.014-.044.057-.17a5.456,5.456,0,0,1,.209.543c1.752,6.921,3.477,13.848,4.936,20.839a125.972,125.972,0,0,0,3.566,13.464,74.9,74.9,0,0,0,3.461,8.752,8.026,8.026,0,0,0,.521.794.831.831,0,0,1,.115.3,1.786,1.786,0,0,0,.795,1.186,1.646,1.646,0,0,0-.076-.315,40.033,40.033,0,0,1-2.915-11.975,79.864,79.864,0,0,1,.382-19c.052-.432.177-.856.268-1.284C205.618,242.791,205.641,242.964,205.638,243.136Zm-35.445,52.876,10.064-6.189a125.044,125.044,0,0,1-14.023,3.62l13.425-4.835-.02-.054-8.052,1.531-.03-.124,4.076-1.17-.024-.122c-.248.035-.495.072-.742.1-1.348.171-2.691.393-4.044.5a18,18,0,0,0-3.556.685,17.615,17.615,0,0,0-2.019.847,1.825,1.825,0,0,1-.285.082,17.867,17.867,0,0,0-4.044,1.824,10.235,10.235,0,0,0-1.926,1.49c-1.841,1.683-3.639,3.412-5.476,5.1a25.378,25.378,0,0,1-7.046,4.728.938.938,0,0,0-.651.877,3.051,3.051,0,0,1-.322.977,10.937,10.937,0,0,1-2.529,3.352l-.571.545c.029.076.033.142.064.16a14.415,14.415,0,0,1,2.963,2.33,8.659,8.659,0,0,0,6.341,2.6c1.9-.005,3.8.01,5.7-.017a3.66,3.66,0,0,0,1.924-.451,3.069,3.069,0,0,1,.77-.208,11.412,11.412,0,0,1-1.282,2.768c-.4.929-.791,1.861-1.22,2.873a5.961,5.961,0,0,0,.8.215c1.127.139,2.254.31,3.387.37,1.627.087,3.259.1,4.889.115a5.25,5.25,0,0,0,1.146-.2c.564-.125,1.012.191,1.515.27-.027.148-.021.226-.046.238-.529.253-.589.71-.57,1.223.045,1.21.072,2.421.111,3.63a.681.681,0,0,0,.067.19c.063.013.12.045.153.029a25.7,25.7,0,0,1,4.591-1.429,13.086,13.086,0,0,0,3.482-1.443,1.1,1.1,0,0,0,.633-.838c.07-.52.294-.59,1-.487.026.041.072.084.072.126a2.808,2.808,0,0,0,1.245,2.16c.772.686,1.508,1.411,2.3,2.153.072-.093.19-.236.295-.387a14.285,14.285,0,0,1,3.107-3.155,13.95,13.95,0,0,0,2.562-2.661,3.769,3.769,0,0,0,.748-1.755c.039-.259.126-.511.19-.764.8.46,1.52.924,2.284,1.3s1.546.655,2.372,1c.074-.167.16-.335.225-.51a26.163,26.163,0,0,1,2.008-4.375,4.4,4.4,0,0,0,.587-3.138c-.043-.237-.055-.481-.079-.7a.637.637,0,0,1,.91.09,2.424,2.424,0,0,0,1.777.566c.752.015,1.5.164,2.31.262a25.506,25.506,0,0,1,1.152-4.4c.14-.524.32-1.054-.061-1.537a.553.553,0,0,1,.691-.338c.454.11.908.224,1.354.362.281.088.547.223.87.357a13.726,13.726,0,0,0,.792-5.684,40.735,40.735,0,0,0-1.63-7.365,20.218,20.218,0,0,1-.9-6.878c.039-.859.168-1.713.27-2.7-.39.489-.74.89-1.049,1.32-1.291,1.792-1.068,1.011-1.037,3.228.014.988.049,1.976.055,2.965a20.789,20.789,0,0,1-1.043,6.712c-.45,1.358-.915,2.711-1.438,4.05a81.741,81.741,0,0,0,1.111-13.507,4.217,4.217,0,0,0-.381.416c-1.042,1.562-2.065,3.138-3.126,4.688a1.2,1.2,0,0,0-.16,1.171,40.8,40.8,0,0,1,1.815,10.111c0,.046-.015.093-.112.166-.583-2.039-1.166-4.077-1.74-6.086-.1,2.634-.209,5.3-.314,7.969l-.144.011c-.27-1.765-.629-3.522-.787-5.3-.156-1.757-.11-3.532-.292-5.316-.155,1.078-.385,2.152-.447,3.235-.083,1.429-.036,2.865-.042,4.3,0,1.253-.006,2.506-.052,3.765a32.389,32.389,0,0,1-1.269-6.505.949.949,0,0,0-.333.861c.02,1.11.006,2.226.118,3.328.171,1.7.478,3.376.649,5.071.177,1.744.262,3.5.384,5.247a1.616,1.616,0,0,1-.041.307,58.743,58.743,0,0,1-2.245-11.466l-.167-.006-1.5,8.189a39.411,39.411,0,0,1,.047-7.506,7.154,7.154,0,0,0-.586.869,76.247,76.247,0,0,1-4.268,7.2.29.29,0,0,1-.195.118,55.726,55.726,0,0,1,2.654-6.57l-.143-.089a9.13,9.13,0,0,0-.566.726,22.935,22.935,0,0,0-3.355,8.727c-.378,2.337-.954,4.642-1.5,6.949.087-4.495.328-8.961,2.343-13.137-1.512,1.234-2.874,2.633-4.479,3.745a47.839,47.839,0,0,0,4.377-5.333,2.1,2.1,0,0,0-.417.168c-1.249.84-2.512,1.662-3.733,2.541-1.664,1.2-3.3,2.438-4.943,3.657a1.276,1.276,0,0,1-.29.083c.123-.151.177-.227.24-.294a46.554,46.554,0,0,1,5.087-4.854,12.294,12.294,0,0,1,4.646-2.394,1.352,1.352,0,0,0,.837-.552c.371-.52.769-1.02,1.116-1.574a23.49,23.49,0,0,1-10.684,4.942l7.705-4.015-.036-.081-9.342,3.5a38.482,38.482,0,0,1,8.419-4.061,27.557,27.557,0,0,1,4.5-1.23c.157-.024.295-.178.441-.271l-.069-.147c-.37.1-.741.2-1.111.3-2,.552-4.017,1.048-5.993,1.677-1.786.569-3.54,1.25-5.282,1.946-.982.393-1.917.907-2.864,1.385a6.106,6.106,0,0,1-.867.463,8.123,8.123,0,0,1,.6-.629,20.255,20.255,0,0,1,7.355-4.192c2.464-.725,4.956-1.355,7.438-2.014,2.043-.542,2.047-.533,3.213-2.267.5-.738.984-1.482,1.471-2.227a1.81,1.81,0,0,0,.271-.615c-2.149,1.714-4.69,2.7-7.074,3.979l9.015-6.777-.1-.15a22.488,22.488,0,0,1-4.515,2.888,26.9,26.9,0,0,1-5.115,1.7l4.776-2.34a91.78,91.78,0,0,1-9.957,2.205c.387-.136.775-.269,1.159-.411,1.9-.7,3.8-1.414,5.7-2.106,1.324-.481,2.658-.935,3.987-1.4a30.1,30.1,0,0,0,5.193-2.53c.678-.4.9-1.124,1.386-1.745l-6.445,3.158-.017-.035,4.011-3.1-.06-.091-3.7,1.811-.06-.067.494-.535-.393-.024a8.075,8.075,0,0,0,1.735-1.349l-3.45,1.457-.033-.064c.893-.573,1.768-1.176,2.684-1.711q3.234-1.887,6.5-3.71a9.621,9.621,0,0,1,1.785-.7,1.645,1.645,0,0,0,.875-.631,35.711,35.711,0,0,1,3.835-4.511,9.956,9.956,0,0,1,3.353-2.27c.158-.061.306-.148.461-.224-.1-.414-.384-.293-.6-.254-1.362.236-2.733.434-4.079.739a50.35,50.35,0,0,0-9.38,3.22,3.257,3.257,0,0,0-.752.466,24.655,24.655,0,0,0-4.742,5.17c-.665.982-1.339,1.958-1.992,2.948a33.739,33.739,0,0,1-7.712,8.138,106.021,106.021,0,0,1-8.892,6.013c-.233.144-.446.259-.485.591a7.389,7.389,0,0,1-1.3,3.12,33.793,33.793,0,0,1-5.229,6.326c-1.435,1.354-2.989,2.581-4.491,3.862a.281.281,0,0,1-.253.042c1.191-1.341,2.394-2.671,3.567-4.027s2.355-2.733,3.483-4.138a18.786,18.786,0,0,0,2.945-4.619c-2.524,1.325-5.008,2.7-7.491,4.1.439-.338.868-.69,1.32-1.011q6.825-4.854,13.655-9.7a49.133,49.133,0,0,0,5.213-4.153,3.363,3.363,0,0,0,.486-.548c-2.586,1.769-5.163,3.544-7.9,5.08a55.012,55.012,0,0,0,6.643-5.829l-5.986,3.321-.029-.059q3.04-2.279,6.081-4.558a54.947,54.947,0,0,0,5.9-4.9A146.929,146.929,0,0,1,170.193,296.012Zm60.761,22.546a52.437,52.437,0,0,0-3.529-8.878,50.5,50.5,0,0,0-4.981-7.882c.574.912,1.106,1.855,1.732,2.731a11.778,11.778,0,0,1,2.112,5.239,25.415,25.415,0,0,0,.788,3.84,15.152,15.152,0,0,0,1.4,3.012,19.558,19.558,0,0,1,2.374,5.408,21.172,21.172,0,0,1,.478,4.709c0,.236.012.473.019.709A18.225,18.225,0,0,0,230.954,318.558Zm-15.909-24.8-2.1-7.521A14.2,14.2,0,0,0,215.045,293.756ZM174.664,250.62c.033.293.074.586.116.878.252,1.736.252,1.736,1.65,3.079-.636-1.879-1.246-3.68-1.855-5.481l-.076.005C174.554,249.607,174.606,250.114,174.664,250.62Zm21.681,28.66,9.514-1.931C204.42,277.3,197.455,278.641,196.345,279.28ZM137.5,215.694a1.934,1.934,0,0,0-1.6-1.08l3.711,3.337a6.917,6.917,0,0,0-1.993-2.652Zm42.216,44.219-4.063-4.76A11.014,11.014,0,0,0,179.718,259.913ZM213.7,279.041c-.1-.271-.1-.271-.53-.669.644,2.2,1.245,4.257,1.893,6.47A24.22,24.22,0,0,0,213.7,279.041Zm1.889,9.045a13.282,13.282,0,0,0,1.521,4.772Zm-106.6-74.372c.05.684.518.887.912,1.1Zm51.988-17.675-.028.013q.235.483.472.965l.028-.014Zm49.729,82.314c.13-.434-.092-.449-.286-.49l-.126.152Zm-61.091-14.16-.03.1.617.186.045-.122Zm10.478-22.723-.033.016.168.342.032-.016Zm-16.4-20.332-.027.012.135.274.021-.022Z" transform="translate(378.36 243.933) rotate(149)"/></svg>